<svg xmlns="http://www.w3.org/2000/svg" xmlns:xlink="http://www.w3.org/1999/xlink" width="500" height="500" viewBox="0 0 375 375"><clipPath id="a"><path fill-rule="evenodd" d="M0 0h1562.5v1562.5H0z" transform="scale(.24)"/></clipPath><g clip-path="url(#a)"><path fill="#fff" d="M0 0h375v375H0z"/></g><clipPath id="b"><path fill-rule="evenodd" d="M0 0h1562.5v1562.5H0z" transform="scale(.24)"/></clipPath><g clip-path="url(#b)"><path fill="#fff" d="M0 0h375v375H0z"/></g><clipPath id="c"><path fill-rule="evenodd" d="M0 0h1562.5v1562.5H0z" transform="scale(.24)"/></clipPath><g fill="none" stroke="#131516" stroke-width="10" clip-path="url(#c)"><path stroke-width="7.5" d="M37.5 268.922h300M37.5 228.743h300M37.5 188.25h300M37.5 148.028h300M37.5 107.534h300"/></g><clipPath id="d"><path fill-rule="evenodd" d="M165.625 156.25H618.75v1250H165.625z" transform="scale(.24)"/></clipPath><g clip-path="url(#d)"><path fill="#00bf63" fill-rule="evenodd" d="M101.15 202.76c-4.445 1.236-8.454 3.999-12.17 8.215-3.717 4.29-5.54 9.015-5.54 14.104 0 3.199 1.094 6.834 3.207 10.687 2.114 3.926 5.32 6.76 9.475 8.578 1.384.291 2.04 1.018 2.04 2.036 0 .363-.51.727-1.749 1.018-6.632-1.672-12.098-5.235-16.325-10.542-4.227-5.38-6.413-11.486-6.559-18.465.219-7.489 2.478-14.468 6.778-20.865 4.373-6.47 9.984-11.05 16.835-13.74l-5.029-25.809c-11.223 9.306-20.333 18.975-27.402 29.153-7.07 10.105-10.713 21.083-11.005 32.933a43.267 43.267 0 0 0 3.28 15.412c2.04 5.016 5.101 9.524 9.183 13.667 8.235 8.215 18.948 12.505 31.993 12.941 4.446-.29 9.183-1.09 14.284-2.4L101.15 202.76zm5.247-.727 11.37 55.906c11.223-4.507 16.834-14.322 16.834-29.298-.656-5.016-2.113-9.523-4.591-13.522-2.405-4.071-5.612-7.27-9.693-9.596-4.081-2.327-8.672-3.49-13.92-3.49zm-14.94-75.607c2.405-1.454 5.175-3.999 8.163-7.561 2.988-3.49 5.903-7.634 8.672-12.286 2.842-4.726 5.102-9.524 6.778-14.395 1.676-4.798 2.478-9.378 2.478-13.595 0-1.817-.146-3.635-.51-5.234-.292-2.617-1.094-4.653-2.478-6.034-1.385-1.309-3.134-2.036-5.32-2.036-4.373 0-8.308 2.69-11.807 8.07-2.696 4.653-4.955 10.178-6.559 16.43-1.676 6.325-2.623 12.577-2.77 18.902.365 7.197 1.531 13.086 3.353 17.739zm-4.591 4.216A150.38 150.38 0 0 1 81.4 94.656c.073-7.852.875-15.194 2.405-22.028 1.458-6.834 3.571-12.722 6.34-17.811 2.697-5.09 5.83-8.942 9.329-11.56 3.134-2.326 5.393-3.562 6.632-3.562.947 0 1.749.364 2.478 1.018.729.654 1.676 1.745 2.842 3.199 8.673 12.286 13.045 27.117 13.045 44.42 0 8.214-1.093 16.211-3.28 24.208-2.113 7.924-5.247 15.485-9.4 22.537-4.228 7.124-9.183 13.304-14.94 18.611l5.902 28.644c3.207-.364 5.393-.655 6.632-.655 5.54 0 10.495 1.163 15.086 3.49 4.592 2.326 8.527 5.452 11.734 9.45 3.206 3.927 5.684 8.434 7.433 13.523 1.676 5.089 2.624 10.396 2.624 15.921 0 8.579-2.26 16.43-6.778 23.482s-11.296 12.214-20.406 15.558c.583 3.562 1.604 8.724 3.134 15.34 1.458 6.688 2.55 11.995 3.28 15.92.728 3.926 1.02 7.707 1.02 11.414 0 5.744-1.385 10.833-4.154 15.34-2.843 4.507-6.632 7.997-11.442 10.469-4.737 2.472-9.984 3.707-15.669 3.707-8.017 0-15.013-2.253-20.989-6.688-5.976-4.507-9.183-10.541-9.474-18.248.218-3.416 1.02-6.615 2.478-9.669 1.457-3.053 3.425-5.525 5.976-7.415 2.478-1.963 5.466-2.98 8.89-3.199 2.843 0 5.54.8 8.09 2.327a18.24 18.24 0 0 1 6.05 6.397 18.44 18.44 0 0 1 2.259 8.87c0 4.289-1.458 7.924-4.373 10.905-2.915 2.98-6.632 4.507-11.078 4.507H81.4c2.842 4.362 7.507 6.616 13.993 6.616 3.28 0 6.632-.727 9.984-2.036 3.425-1.381 6.268-3.199 8.673-5.525 2.405-2.327 4.008-4.798 4.664-7.416 1.239-2.98 1.822-7.124 1.822-12.286 0-3.49-.365-6.979-1.02-10.469-.656-3.416-1.677-7.996-3.061-13.667-1.385-5.598-2.405-9.96-2.988-12.94a55.975 55.975 0 0 1-13.629 1.672c-7.943 0-15.45-1.6-22.52-4.871-7.068-3.272-13.263-7.78-18.656-13.595-5.32-5.816-9.474-12.36-12.462-19.774a63.612 63.612 0 0 1-4.519-23.046c.292-7.416 1.677-14.54 4.3-21.228 2.624-6.761 5.976-13.159 10.13-19.12 4.154-5.962 8.454-11.414 12.9-16.285a960.763 960.763 0 0 1 17.855-18.466z"/><path fill="none" stroke="#131516" stroke-width="53.022" d="M2002 7851c-61 17-116 55-167 113-51 59-76 124-76 194 0 44 15 94 44 147 29 54 73 93 130 118 19 4 28 14 28 28 0 5-7 10-24 14-91-23-166-72-224-145-58-74-88-158-90-254 3-103 34-199 93-287 60-89 137-152 231-189l-69-355c-154 128-279 261-376 401-97 139-147 290-151 453 2 73 17 144 45 212 28 69 70 131 126 188 113 113 260 172 439 178 61-4 126-15 196-33l-155-783zm72-10 156 769c154-62 231-197 231-403-9-69-29-131-63-186-33-56-77-100-133-132s-119-48-191-48zm-205-1040c33-20 71-55 112-104 41-48 81-105 119-169 39-65 70-131 93-198 23-66 34-129 34-187 0-25-2-50-7-72-4-36-15-64-34-83-19-18-43-28-73-28-60 0-114 37-162 111-37 64-68 140-90 226-23 87-36 173-38 260 5 99 21 180 46 244zm-63 58c-45-162-70-327-75-495 1-108 12-209 33-303 20-94 49-175 87-245 37-70 80-123 128-159 43-32 74-49 91-49 13 0 24 5 34 14s23 24 39 44c119 169 179 373 179 611 0 113-15 223-45 333-29 109-72 213-129 310-58 98-126 183-205 256l81 394c44-5 74-9 91-9 76 0 144 16 207 48s117 75 161 130c44 54 78 116 102 186 23 70 36 143 36 219 0 118-31 226-93 323s-155 168-280 214c8 49 22 120 43 211 20 92 35 165 45 219s14 106 14 157c0 79-19 149-57 211-39 62-91 110-157 144-65 34-137 51-215 51-110 0-206-31-288-92-82-62-126-145-130-251 3-47 14-91 34-133s47-76 82-102c34-27 75-41 122-44 39 0 76 11 111 32 34 22 62 51 83 88 20 37 31 78 31 122 0 59-20 109-60 150s-91 62-152 62h-23c39 60 103 91 192 91 45 0 91-10 137-28 47-19 86-44 119-76s55-66 64-102c17-41 25-98 25-169 0-48-5-96-14-144-9-47-23-110-42-188-19-77-33-137-41-178-60 15-122 23-187 23-109 0-212-22-309-67s-182-107-256-187c-73-80-130-170-171-272-40-101-61-207-62-317 4-102 23-200 59-292 36-93 82-181 139-263s116-157 177-224c62-66 143-151 245-254z" transform="matrix(.07288 0 0 .0727 -44.752 -368.004)"/></g><clipPath id="e"><path fill-rule="evenodd" d="M0 0h1562.5v1562.5H0z" transform="scale(.24)"/></clipPath><g clip-path="url(#e)"><path fill="none" stroke="#131516" stroke-width="10.717" d="M185.199 261.956V108.945h61.435c15.838 0 27.786 3.645 35.845 10.937 8.059 7.29 12.088 17.356 12.088 30.194 0 9.28-2.354 16.885-7.064 22.815-4.71 5.931-11.74 10.466-21.089 13.606v2.198c4.814 2.093 8.704 5.198 11.67 9.315 2.965 4.116 5.773 10.221 8.425 18.315l15.28 45.631h-31.084L255.74 216.22c-1.535-4.605-3.262-8.18-5.18-10.727-1.92-2.547-4.362-4.396-7.327-5.547-2.965-1.151-6.82-1.727-11.565-1.727h-16.222v63.737H185.2zm57.771-87.704c14.653 0 21.979-6.838 21.979-20.513 0-13.885-7.326-20.827-21.979-20.827h-27.525v41.34h27.525z"/><symbol id="f"><path d="M0 0v.714h.287C.36.714.417.697.454.663A.18.18 0 0 0 .51.522.165.165 0 0 0 .477.416.203.203 0 0 0 .38.352v-.01A.127.127 0 0 0 .433.298a.315.315 0 0 0 .04-.085L.543 0H.4l-.07.213a.169.169 0 0 1-.024.05A.073.073 0 0 1 .27.29a.145.145 0 0 1-.054.008H.14V0H0m.27.41C.338.41.372.44.372.504.372.57.338.602.27.602H.14V.41H.27z"/></symbol><use fill-opacity="0" transform="matrix(214.34154 0 0 -214.34154 185.199 261.956)" xlink:href="#f"/><g data-name="P"><use fill="#00bf63" transform="matrix(214.34154 0 0 -214.34154 185.199 261.956)" xlink:href="#f"/></g><path fill="none" stroke="#131516" stroke-width="7.5" d="M337.496 272.668V103.78"/><path fill="none" stroke="#131516" stroke-width="4.5" d="M327.746 272.668V103.78"/></g></svg>