<svg xmlns="http://www.w3.org/2000/svg" xmlns:xlink="http://www.w3.org/1999/xlink" width="1800" height="500" viewBox="0 0 1350 375"><clipPath id="a"><path transform="scale(.24)" d="M0 0h5625v1562.5H0z" fill-rule="evenodd"/></clipPath><g clip-path="url(#a)"><path d="M0 0h1350v375H0z" fill="#fff"/></g><clipPath id="b"><path transform="scale(.24)" d="M0 0h5625v1562.5H0z" fill-rule="evenodd"/></clipPath><g clip-path="url(#b)"><path d="M0 0h1350v375H0z" fill="#fff"/></g><clipPath id="c"><path transform="scale(.24)" d="M0 0h5625v1562.5H0z" fill-rule="evenodd"/></clipPath><g clip-path="url(#c)" stroke-width="4" fill="none" stroke="#131516"><path d="M48.061 260.186h1242.805M48.061 224.318h1242.805M48.061 188.17h1242.805" stroke-width="3"/></g><clipPath id="d"><path transform="scale(.24)" d="M0 0h5625v1593.75H0z"/></clipPath><g clip-path="url(#d)"><clipPath id="e"><path transform="scale(.24)" d="M0 0h5625v1562.5H0z"/></clipPath><g clip-path="url(#e)"><clipPath id="f"><path transform="scale(.24)" d="M0 0h5625v1562.5H0z"/></clipPath><g clip-path="url(#f)"><clipPath id="g"><path transform="scale(.24)" d="M3624.507 634.427h296.36v432.964h-296.36z"/></clipPath><g clip-path="url(#g)"><clipPath id="h"><path transform="scale(.24)" d="M3772.687 634.427c-81.838 0-148.18 96.824-148.18 216.263 0 119.44 66.342 216.264 148.18 216.264 81.838 0 148.18-96.825 148.18-216.264 0-119.439-66.343-216.263-148.18-216.263z"/></clipPath><g clip-path="url(#h)"><path d="M869.882 152.263h71.126v103.91h-71.126z" fill="#fff"/></g></g></g></g></g><clipPath id="i"><path transform="scale(.24)" d="M0 0h5625v1593.75H0z"/></clipPath><g clip-path="url(#i)"><clipPath id="j"><path transform="scale(.24)" d="M0 0h5625v1562.5H0z"/></clipPath><g clip-path="url(#j)"><clipPath id="k"><path transform="scale(.24)" d="M0 0h5625v1562.5H0z"/></clipPath><g clip-path="url(#k)"><clipPath id="l"><path transform="scale(.24)" d="m4032.202 683.916 30.108 184.212-65.226 10.66-30.108-184.211 65.226-10.66z"/></clipPath><g clip-path="url(#l)"><clipPath id="m"><path transform="scale(.24)" d="M4047.24 775.927c-8.305-50.816-29.64-89.624-47.651-86.68-18.012 2.943-25.88 46.525-17.574 97.341 8.305 50.816 29.64 89.625 47.651 86.68 18.012-2.943 25.88-46.524 17.574-97.34z"/></clipPath><g clip-path="url(#m)"><path d="m967.728 164.14 7.216 44.15-15.654 2.558-7.216-44.15z" fill="#fff"/></g></g></g></g></g><clipPath id="n"><path transform="scale(.24)" d="M0 0h5625v1593.75H0z"/></clipPath><g clip-path="url(#n)"><clipPath id="o"><path transform="scale(.24)" d="M0 0h5625v1562.5H0z"/></clipPath><g clip-path="url(#o)"><clipPath id="p"><path transform="scale(.24)" d="M0 0h5625v1562.5H0z"/></clipPath><g clip-path="url(#p)"><clipPath id="q"><path transform="scale(.24)" d="M4408.945 636.102h296.36v431.805h-296.36z"/></clipPath><g clip-path="url(#q)"><clipPath id="r"><path transform="scale(.24)" d="M4557.125 636.102c-81.838 0-148.18 96.45-148.18 215.426 0 118.976 66.342 215.426 148.18 215.426 81.838 0 148.18-96.45 148.18-215.426 0-118.977-66.342-215.426-148.18-215.426z"/></clipPath><g clip-path="url(#r)"><path d="M1058.147 152.664h71.126V256.02h-71.126z" fill="#fff"/></g></g></g></g></g><clipPath id="s"><path transform="scale(.24)" d="M0 0h5625v1593.75H0z"/></clipPath><g clip-path="url(#s)"><clipPath id="t"><path transform="scale(.24)" d="M0 0h5625v1562.5H0z"/></clipPath><g clip-path="url(#t)"><clipPath id="u"><path transform="scale(.24)" d="M0 0h5625v1562.5H0z"/></clipPath><g clip-path="url(#u)"><clipPath id="v"><path transform="scale(.24)" d="m3911.545 873.09 139.328 96.199-67.47 97.72-139.328-96.198 67.47-97.72z"/></clipPath><g clip-path="url(#v)"><clipPath id="w"><path transform="scale(.24)" d="m3911.545 873.09 139.268 96.157-67.47 97.72-139.268-96.156 67.47-97.72z"/></clipPath><g clip-path="url(#w)"><path d="m938.77 209.542 33.44 23.087-16.193 23.453-33.44-23.087z" fill="#fff"/></g></g></g></g></g><clipPath id="x"><path transform="scale(.24)" d="M0 0h5625v1593.75H0z"/></clipPath><g clip-path="url(#x)"><clipPath id="y"><path transform="scale(.24)" d="M0 0h5625v1562.5H0z"/></clipPath><g clip-path="url(#y)"><clipPath id="z"><path transform="scale(.24)" d="M0 0h5625v1562.5H0z"/></clipPath><g clip-path="url(#z)"><clipPath id="A"><path transform="scale(.24)" d="m4656.47 844.77 180.555 124.661-67.471 97.72-180.553-124.661 67.47-97.72z"/></clipPath><g clip-path="url(#A)"><clipPath id="B"><path transform="scale(.24)" d="m4656.47 844.77 180.282 124.473-67.47 97.72L4589 942.49l67.47-97.72z"/></clipPath><g clip-path="url(#B)"><path d="m1117.553 202.745 43.241 29.855-16.193 23.453-43.24-29.855z" fill="#fff"/></g></g></g></g></g><clipPath id="C"><path transform="scale(.24)" d="M0 0h5625v1562.5H0z" fill-rule="evenodd"/></clipPath><g clip-path="url(#C)" stroke-width="4" fill="none" stroke="#131516"><path d="M48.061 116.114h1242.805M48.061 152.263h1242.805" stroke-width="3"/></g><clipPath id="D"><path transform="scale(.24)" d="M0 0h5625v1593.75H0z"/></clipPath><g clip-path="url(#D)"><clipPath id="E"><path transform="scale(.24)" d="M0 0h5625v1562.5H0z"/></clipPath><g clip-path="url(#E)"><clipPath id="F"><path transform="scale(.24)" d="M0 0h5625v1562.5H0z"/></clipPath><g clip-path="url(#F)"><clipPath id="G"><path transform="scale(.24)" d="M1466.271 660.021h316.673v392.13H1466.27z"/></clipPath><g clip-path="url(#G)"><clipPath id="H"><path transform="scale(.24)" d="M1624.607 660.021c-87.446 0-158.336 87.68-158.336 195.837 0 108.157 70.89 195.836 158.336 195.836 87.447 0 158.337-87.68 158.337-195.837 0-108.157-70.89-195.836-158.337-195.836z"/></clipPath><g clip-path="url(#H)"><path d="M351.905 158.405h76.001v94.111h-76z" fill="#fff"/></g></g></g></g></g><clipPath id="I"><path transform="scale(.24)" d="M0 0h5625v1593.75H0z"/></clipPath><g clip-path="url(#I)"><clipPath id="J"><path transform="scale(.24)" d="M0 0h5625v1562.5H0z"/></clipPath><g clip-path="url(#J)"><clipPath id="K"><path transform="scale(.24)" d="M0 0h5625v1562.5H0z"/></clipPath><g clip-path="url(#K)"><clipPath id="L"><path transform="scale(.24)" d="M2374.605 660.021h379.172v392.503h-379.172z"/></clipPath><g clip-path="url(#L)"><clipPath id="M"><path transform="scale(.24)" d="M2564.19 660.021c-104.705 0-189.585 87.68-189.585 195.837 0 108.157 84.88 195.836 189.586 195.836 104.705 0 189.586-87.68 189.586-195.837 0-108.157-84.88-195.836-189.586-195.836z"/></clipPath><g clip-path="url(#M)"><path d="M569.905 158.405h91.001v93.845h-91z" fill="#fff"/></g></g></g></g></g><clipPath id="N"><path transform="scale(.24)" d="M0 0h5625v1593.75H0z"/></clipPath><g clip-path="url(#N)"><clipPath id="O"><path transform="scale(.24)" d="M0 0h5625v1562.5H0z"/></clipPath><g clip-path="url(#O)"><clipPath id="P"><path transform="scale(.24)" d="M0 0h5625v1562.5H0z"/></clipPath><g clip-path="url(#P)"><clipPath id="Q"><path transform="scale(.24)" d="M2870.438 663.432h313.888v392.36h-313.888z"/></clipPath><g clip-path="url(#Q)"><clipPath id="R"><path transform="scale(.24)" d="M3027.382 663.432c-86.678 0-156.944 87.679-156.944 195.836 0 108.158 70.266 195.836 156.944 195.836 86.678 0 156.944-87.678 156.944-195.836 0-108.157-70.266-195.836-156.944-195.836z"/></clipPath><g clip-path="url(#R)"><path d="M688.905 159.224h75.333v93.872h-75.333z" fill="#fff"/></g></g></g></g></g><clipPath id="S"><path transform="scale(.24)" d="M0 0h5625v1562.5H0z" fill-rule="evenodd"/></clipPath><g clip-path="url(#S)" fill="none" stroke="#131516"><path stroke-width="7.5" d="M1290.863 259.781V116.513"/><path stroke-width="4.5" d="M1282.161 260.185V116.113"/></g><clipPath id="T"><path transform="scale(.24)" d="M208.624 223.306h403.125v1115.625H208.624z" fill-rule="evenodd"/></clipPath><g clip-path="url(#T)"><path d="M104.881 201.12c-3.968 1.104-7.547 3.57-10.864 7.334-3.318 3.829-4.945 8.047-4.945 12.59 0 2.856.976 6.1 2.863 9.54 1.886 3.505 4.749 6.036 8.457 7.658 1.236.26 1.822.909 1.822 1.818 0 .324-.456.649-1.562.908-5.92-1.493-10.8-4.673-14.573-9.41-3.773-4.803-5.725-10.254-5.855-16.484.195-6.685 2.212-12.915 6.05-18.626 3.904-5.776 8.914-9.865 15.029-12.266l-4.489-23.039c-10.019 8.307-18.151 16.938-24.462 26.024-6.31 9.021-9.563 18.82-9.824 29.4a38.624 38.624 0 0 0 2.928 13.758c1.822 4.478 4.554 8.501 8.197 12.2 7.352 7.334 16.915 11.163 28.56 11.553 3.97-.26 8.198-.974 12.752-2.142l-10.084-50.816zm4.684-.649 10.15 49.907c10.018-4.023 15.028-12.785 15.028-26.154-.586-4.478-1.887-8.501-4.099-12.07-2.147-3.635-5.01-6.49-8.652-8.567-3.644-2.077-7.742-3.116-12.427-3.116zM96.23 132.977c2.146-1.298 4.619-3.57 7.286-6.75 2.667-3.115 5.27-6.814 7.742-10.967 2.537-4.219 4.554-8.502 6.05-12.85 1.497-4.283 2.212-8.372 2.212-12.136 0-1.623-.13-3.245-.455-4.673-.26-2.336-.976-4.153-2.212-5.386-1.236-1.169-2.798-1.818-4.75-1.818-3.903 0-7.416 2.402-10.539 7.204-2.407 4.154-4.424 9.086-5.855 14.667-1.496 5.646-2.342 11.228-2.472 16.874.325 6.425 1.366 11.682 2.993 15.835zm-4.1 3.764a134.244 134.244 0 0 1-4.879-32.125c.066-7.009.781-13.563 2.147-19.664 1.302-6.1 3.188-11.357 5.66-15.9 2.408-4.543 5.205-7.983 8.328-10.319 2.797-2.077 4.814-3.18 5.92-3.18.846 0 1.562.325 2.212.909.65.584 1.497 1.557 2.537 2.855C121.796 70.285 125.7 83.524 125.7 98.97c0 7.334-.976 14.473-2.928 21.611-1.886 7.074-4.684 13.824-8.392 20.119-3.774 6.36-8.198 11.876-13.337 16.614l5.27 25.57c2.862-.325 4.814-.584 5.92-.584 4.944 0 9.368 1.038 13.467 3.115s7.612 4.867 10.474 8.437c2.863 3.504 5.075 7.528 6.636 12.07 1.496 4.544 2.342 9.281 2.342 14.214 0 7.658-2.017 14.667-6.05 20.962-4.034 6.295-10.084 10.903-18.216 13.888.52 3.18 1.43 7.788 2.797 13.694 1.301 5.97 2.277 10.708 2.928 14.213.65 3.504.91 6.879.91 10.189 0 5.127-1.236 9.67-3.708 13.693-2.537 4.024-5.92 7.14-10.214 9.346-4.229 2.206-8.913 3.31-13.987 3.31-7.157 0-13.402-2.012-18.737-5.971-5.335-4.024-8.198-9.41-8.458-16.29.195-3.05.911-5.906 2.212-8.631 1.301-2.726 3.058-4.933 5.335-6.62 2.212-1.752 4.88-2.66 7.937-2.855 2.537 0 4.944.713 7.222 2.076a16.283 16.283 0 0 1 5.4 5.711 16.462 16.462 0 0 1 2.016 7.918c0 3.829-1.301 7.074-3.903 9.735-2.603 2.66-5.92 4.023-9.89 4.023H87.25c2.538 3.894 6.701 5.906 12.492 5.906 2.927 0 5.92-.649 8.913-1.817 3.057-1.233 5.595-2.855 7.742-4.932 2.146-2.077 3.578-4.283 4.163-6.62 1.106-2.66 1.627-6.36 1.627-10.968 0-3.115-.326-6.23-.911-9.345-.586-3.05-1.496-7.139-2.733-12.201-1.236-4.997-2.146-8.891-2.667-11.552a49.969 49.969 0 0 1-12.166 1.493c-7.091 0-13.792-1.428-20.103-4.348-6.31-2.92-11.84-6.945-16.655-12.136-4.749-5.192-8.457-11.033-11.125-17.653a56.786 56.786 0 0 1-4.033-20.573c.26-6.62 1.496-12.98 3.838-18.95 2.342-6.036 5.335-11.747 9.043-17.068 3.709-5.322 7.547-10.19 11.516-14.538 4.033-4.283 9.303-9.8 15.939-16.484z" fill="#00bf63" fill-rule="evenodd"/><path transform="matrix(.06506 0 0 .0649 -25.365 -308.398)" stroke-width="53.022" fill="none" stroke="#131516" d="M2002 7851c-61 17-116 55-167 113-51 59-76 124-76 194 0 44 15 94 44 147 29 54 73 93 130 118 19 4 28 14 28 28 0 5-7 10-24 14-91-23-166-72-224-145-58-74-88-158-90-254 3-103 34-199 93-287 60-89 137-152 231-189l-69-355c-154 128-279 261-376 401-97 139-147 290-151 453 2 73 17 144 45 212 28 69 70 131 126 188 113 113 260 172 439 178 61-4 126-15 196-33l-155-783zm72-10 156 769c154-62 231-197 231-403-9-69-29-131-63-186-33-56-77-100-133-132s-119-48-191-48zm-205-1040c33-20 71-55 112-104 41-48 81-105 119-169 39-65 70-131 93-198 23-66 34-129 34-187 0-25-2-50-7-72-4-36-15-64-34-83-19-18-43-28-73-28-60 0-114 37-162 111-37 64-68 140-90 226-23 87-36 173-38 260 5 99 21 180 46 244zm-63 58c-45-162-70-327-75-495 1-108 12-209 33-303 20-94 49-175 87-245 37-70 80-123 128-159 43-32 74-49 91-49 13 0 24 5 34 14s23 24 39 44c119 169 179 373 179 611 0 113-15 223-45 333-29 109-72 213-129 310-58 98-126 183-205 256l81 394c44-5 74-9 91-9 76 0 144 16 207 48s117 75 161 130c44 54 78 116 102 186 23 70 36 143 36 219 0 118-31 226-93 323s-155 168-280 214c8 49 22 120 43 211 20 92 35 165 45 219s14 106 14 157c0 79-19 149-57 211-39 62-91 110-157 144-65 34-137 51-215 51-110 0-206-31-288-92-82-62-126-145-130-251 3-47 14-91 34-133s47-76 82-102c34-27 75-41 122-44 39 0 76 11 111 32 34 22 62 51 83 88 20 37 31 78 31 122 0 59-20 109-60 150s-91 62-152 62h-23c39 60 103 91 192 91 45 0 91-10 137-28 47-19 86-44 119-76s55-66 64-102c17-41 25-98 25-169 0-48-5-96-14-144-9-47-23-110-42-188-19-77-33-137-41-178-60 15-122 23-187 23-109 0-212-22-309-67s-182-107-256-187c-73-80-130-170-171-272-40-101-61-207-62-317 4-102 23-200 59-292 36-93 82-181 139-263s116-157 177-224c62-66 143-151 245-254z"/></g><clipPath id="U"><path transform="scale(.24)" d="M0 0h5625v1593.75H0z"/></clipPath><g clip-path="url(#U)"><clipPath id="V"><path transform="scale(.24)" d="M0 0h5625v1562.5H0z"/></clipPath><g clip-path="url(#V)"><clipPath id="W"><path transform="scale(.24)" d="M0 0h5625v1562.5H0z"/></clipPath><g clip-path="url(#W)"><clipPath id="X"><path transform="scale(.24)" d="M1961.48 660.021h233.34v391.937h-233.34z"/></clipPath><g clip-path="url(#X)"><clipPath id="Y"><path transform="scale(.24)" d="M2078.15 660.021c-64.435 0-116.67 87.68-116.67 195.837 0 108.157 52.235 195.836 116.67 195.836s116.67-87.68 116.67-195.837c0-108.157-52.235-195.836-116.67-195.836z"/></clipPath><g clip-path="url(#Y)"><path d="M470.755 158.405h56.002v94.065h-56.002z" fill="#fff"/></g></g></g></g></g><clipPath id="Z"><path transform="scale(.24)" d="M0 0h5625v1562.5H0z" fill-rule="evenodd"/></clipPath><g clip-path="url(#Z)"><path stroke-width="9.321033479999999" fill="none" stroke="#131516" d="M235.29 255.319v-133.08h53.432c13.776 0 24.168 3.172 31.177 9.513 7.009 6.341 10.513 15.095 10.513 26.26 0 8.072-2.048 14.686-6.144 19.844-4.096 5.158-10.21 9.103-18.342 11.834v1.911c4.187 1.82 7.57 4.521 10.15 8.101 2.579 3.58 5.021 8.89 7.327 15.93l13.29 39.687h-27.035l-13.016-39.778c-1.335-4.005-2.837-7.115-4.506-9.33a14.319 14.319 0 0 0-6.372-4.825c-2.579-1-5.932-1.502-10.058-1.502h-14.11v55.435h-26.305zm50.247-76.28c12.743 0 19.115-5.946 19.115-17.84 0-12.076-6.372-18.114-19.115-18.114h-23.94v35.955h23.94zm156.108 31.769h-64.537c.728 8.738 3.216 15.095 7.464 19.07 4.248 3.974 10.043 5.962 17.386 5.962 5.765 0 10.438-1.078 14.018-3.232s6.463-5.416 8.647-9.785h1.912l16.749 10.74c-3.277 7.04-8.223 12.744-14.838 17.114-6.614 4.369-15.444 6.553-26.488 6.553-10.377 0-19.343-1.972-26.898-5.916-7.555-3.945-13.38-9.816-17.477-17.614-4.096-7.797-6.144-17.31-6.144-28.536 0-11.409 2.154-21.027 6.463-28.855 4.308-7.828 10.134-13.67 17.477-17.523 7.342-3.853 15.595-5.78 24.759-5.78 14.2 0 25.077 3.763 32.632 11.288 7.555 7.524 11.333 18.569 11.333 33.133 0 5.28-.182 9.375-.546 12.288l-1.912 1.093zm-21.664-16.294c-.243-7.646-2.018-13.214-5.325-16.703-3.307-3.49-8.147-5.234-14.518-5.234-12.744 0-20.238 7.312-22.484 21.937h42.327zm70.727 62.716c-6.433 0-12.016-1.183-16.749-3.55-4.733-2.366-8.374-5.84-10.923-10.422-2.549-4.582-3.823-10.089-3.823-16.521 0-5.947 1.274-10.938 3.823-14.974 2.549-4.035 6.493-7.342 11.833-9.921 5.34-2.58 12.32-4.567 20.936-5.963 6.008-.97 10.574-2.033 13.7-3.186 3.125-1.153 5.234-2.457 6.326-3.914 1.092-1.456 1.638-3.307 1.638-5.552 0-3.216-1.122-5.674-3.368-7.373-2.245-1.7-5.977-2.549-11.196-2.549-5.583 0-10.892 1.244-15.93 3.732-5.036 2.488-9.405 5.765-13.107 9.83h-1.82l-10.56-15.929c5.098-5.643 11.318-10.043 18.66-13.198 7.344-3.156 15.354-4.734 24.032-4.734 13.29 0 22.908 2.822 28.855 8.466 5.947 5.643 8.92 13.654 8.92 24.03v43.602c0 4.49 1.972 6.736 5.917 6.736 1.517 0 3.004-.274 4.46-.82l1.274.364 1.82 17.568c-1.395.91-3.337 1.654-5.825 2.23-2.488.577-5.218.865-8.192.865-6.008 0-10.695-1.153-14.063-3.459-3.368-2.306-5.78-5.916-7.237-10.832l-1.911-.182c-4.916 10.438-14.08 15.656-27.49 15.656zm8.01-18.842c5.826 0 10.483-1.957 13.972-5.87 3.49-3.915 5.234-9.361 5.234-16.34v-10.195l-1.729-.364c-1.517 1.214-3.505 2.23-5.962 3.05-2.458.819-5.993 1.623-10.605 2.412-5.461.91-9.39 2.472-11.787 4.687-2.397 2.215-3.596 5.356-3.596 9.422 0 4.308 1.274 7.585 3.823 9.83 2.549 2.246 6.099 3.368 10.65 3.368zm108.32 18.842c-7.95 0-14.973-1.926-21.072-5.78-6.099-3.853-10.878-9.679-14.337-17.477-3.459-7.797-5.188-17.4-5.188-28.81 0-11.468 1.775-21.102 5.325-28.9 3.55-7.797 8.465-13.623 14.746-17.477 6.28-3.853 13.548-5.78 21.8-5.78 6.251 0 11.667 1.078 16.249 3.232 4.581 2.154 8.45 5.507 11.606 10.058l1.911-.455v-51.247h25.214v140.725h-25.214v-13.017l-1.911-.364c-2.792 4.734-6.615 8.466-11.47 11.196-4.854 2.731-10.74 4.096-17.659 4.096zm8.193-21.39c7.1 0 12.713-2.534 16.84-7.601 4.126-5.067 6.19-12.759 6.19-23.075 0-10.316-2.064-18.023-6.19-23.12-4.127-5.098-9.74-7.647-16.84-7.647-7.404 0-13.063 2.473-16.977 7.419-3.914 4.946-5.87 12.728-5.87 23.348 0 10.559 1.956 18.311 5.87 23.257 3.914 4.946 9.573 7.419 16.977 7.419zm161.752-25.032h-64.537c.728 8.738 3.216 15.095 7.464 19.07 4.248 3.974 10.043 5.962 17.386 5.962 5.765 0 10.437-1.078 14.018-3.232 3.58-2.154 6.462-5.416 8.647-9.785h1.912l16.748 10.74c-3.277 7.04-8.222 12.744-14.837 17.114-6.614 4.369-15.444 6.553-26.488 6.553-10.377 0-19.343-1.972-26.898-5.916-7.555-3.945-13.381-9.816-17.477-17.614-4.096-7.797-6.144-17.31-6.144-28.536 0-11.409 2.154-21.027 6.462-28.855 4.309-7.828 10.135-13.67 17.477-17.523 7.343-3.853 15.596-5.78 24.76-5.78 14.2 0 25.077 3.763 32.632 11.288 7.555 7.524 11.332 18.569 11.332 33.133 0 5.28-.182 9.375-.546 12.288l-1.911 1.093zm-21.664-16.294c-.243-7.646-2.018-13.214-5.325-16.703-3.308-3.49-8.147-5.234-14.519-5.234-12.743 0-20.238 7.312-22.483 21.937h42.327zm46.059 60.805V154.918h24.485v14.928l1.912.364c2.427-5.583 5.613-9.679 9.558-12.288 3.944-2.61 8.738-3.914 14.382-3.914 5.704 0 10.043.97 13.016 2.912l-4.278 21.756-1.911.364c-1.639-.668-3.217-1.153-4.734-1.457-1.517-.303-3.368-.455-5.552-.455-7.04 0-12.41 2.473-16.112 7.419-3.701 4.945-5.552 12.88-5.552 23.803v46.969h-25.214z"/><symbol id="aa"><path d="M0 0v.714h.287C.36.714.417.697.454.663A.18.18 0 0 0 .51.522.165.165 0 0 0 .477.416.203.203 0 0 0 .38.352v-.01A.127.127 0 0 0 .433.298a.315.315 0 0 0 .04-.085L.543 0H.4l-.07.213a.169.169 0 0 1-.024.05A.073.073 0 0 1 .27.29a.145.145 0 0 1-.054.008H.14V0H0m.27.41C.338.41.372.44.372.504.372.57.338.602.27.602H.14V.41H.27z"/></symbol><symbol id="ab"><path d="M.484.249H.138C.142.202.155.168.178.146A.132.132 0 0 1 .27.115c.03 0 .056.005.075.017.02.012.035.03.047.053h.01l.09-.058a.22.22 0 0 0-.08-.092A.254.254 0 0 0 .271 0a.31.31 0 0 0-.145.032.22.22 0 0 0-.093.094A.33.33 0 0 0 0 .279C0 .34.012.392.035.434a.224.224 0 0 0 .093.094.28.28 0 0 0 .133.031C.337.56.396.54.436.5c.04-.04.061-.1.061-.178A.566.566 0 0 0 .494.255L.484.249M.368.336C.366.377.357.407.338.426.322.445.296.454.262.454.193.454.153.414.141.336h.227z"/></symbol><symbol id="ac"><path d="M.169 0a.199.199 0 0 0-.09.019.135.135 0 0 0-.058.056A.181.181 0 0 0 0 .164c0 .031.007.058.02.08.014.021.035.04.064.053a.408.408 0 0 0 .112.032.41.41 0 0 1 .074.017.074.074 0 0 1 .034.021.048.048 0 0 1 .009.03c0 .017-.007.03-.019.04C.282.446.262.45.234.45A.19.19 0 0 1 .15.43a.235.235 0 0 1-.07-.053h-.01L.012.463c.028.03.06.054.1.07.04.018.083.026.13.026.07 0 .122-.015.154-.045S.444.44.444.384V.152c0-.024.01-.036.032-.036.008 0 .016.001.024.004L.506.117l.01-.094A.102.102 0 0 0 .485.01.205.205 0 0 0 .44.006a.133.133 0 0 0-.076.019.103.103 0 0 0-.038.058l-.01.001C.29.028.24 0 .168 0m.043.101c.031 0 .056.01.075.031.019.021.028.05.028.088v.055l-.01.002A.106.106 0 0 0 .274.26.43.43 0 0 0 .217.248.123.123 0 0 1 .153.222C.141.21.134.194.134.172c0-.023.007-.04.02-.053A.084.084 0 0 1 .213.101z"/></symbol><symbol id="ad"><path d="M.218 0a.21.21 0 0 0-.114.03.208.208 0 0 0-.076.095A.383.383 0 0 0 0 .279c0 .062.01.113.028.155.02.042.046.073.08.094.033.02.072.031.117.031A.2.2 0 0 0 .312.542.154.154 0 0 0 .374.488l.01.002v.275H.52V.01H.384v.07l-.01.002a.163.163 0 0 0-.061-.06A.19.19 0 0 0 .217 0m.044.115a.11.11 0 0 1 .09.04C.374.183.385.224.385.28c0 .056-.01.097-.033.124a.11.11 0 0 1-.09.041.11.11 0 0 1-.092-.04C.15.378.14.336.14.28.14.223.15.181.17.154a.11.11 0 0 1 .092-.04z"/></symbol><symbol id="ae"><path d="M0 0v.539h.131v-.08l.01-.002c.014.03.03.051.052.065A.137.137 0 0 0 .27.543C.3.543.324.538.34.528L.317.41.307.41A.14.14 0 0 1 .25.42.101.101 0 0 1 .165.38C.145.353.135.311.135.252V0H0z"/></symbol><use xlink:href="#aa" transform="matrix(186.42008 0 0 -186.42008 235.29 255.319)" fill-opacity="0"/><use xlink:href="#ab" transform="matrix(186.42008 0 0 -186.42008 351.35 257.23)" fill-opacity="0"/><use xlink:href="#ac" transform="matrix(186.42008 0 0 -186.42008 459.04 257.23)" fill-opacity="0"/><use xlink:href="#ad" transform="matrix(186.42008 0 0 -186.42008 566.292 257.23)" fill-opacity="0"/><use xlink:href="#ab" transform="matrix(186.42008 0 0 -186.42008 686.72 257.23)" fill-opacity="0"/><use xlink:href="#ae" transform="matrix(186.42008 0 0 -186.42008 801.236 255.319)" fill-opacity="0"/><g data-name="H1"><use xlink:href="#aa" transform="matrix(186.42008 0 0 -186.42008 235.29 255.319)" fill="#00bf63"/><use xlink:href="#ab" transform="matrix(186.42008 0 0 -186.42008 351.35 257.23)" fill="#00bf63"/><use xlink:href="#ac" transform="matrix(186.42008 0 0 -186.42008 459.04 257.23)" fill="#00bf63"/><use xlink:href="#ad" transform="matrix(186.42008 0 0 -186.42008 566.292 257.23)" fill="#00bf63"/><use xlink:href="#ab" transform="matrix(186.42008 0 0 -186.42008 686.72 257.23)" fill="#00bf63"/><use xlink:href="#ae" transform="matrix(186.42008 0 0 -186.42008 801.236 255.319)" fill="#00bf63"/></g></g><clipPath id="af"><path transform="scale(.24)" d="M0 0h5625v1593.75H0z"/></clipPath><g clip-path="url(#af)"><clipPath id="ag"><path transform="scale(.24)" d="M0 0h5625v1562.5H0z"/></clipPath><g clip-path="url(#ag)"><clipPath id="ah"><path transform="scale(.24)" d="M0 0h5625v1562.5H0z"/></clipPath><g clip-path="url(#ah)"><clipPath id="ai"><path transform="scale(.24)" d="M3857.737 772.393h169.239v23.293h-169.239z"/></clipPath><g clip-path="url(#ai)"><clipPath id="aj"><path transform="scale(.24)" d="M3857.737 772.393h169.238v23.293h-169.238z"/></clipPath><g clip-path="url(#aj)"><path d="M925.857 185.374h40.617v5.59h-40.617z" fill="#fff"/></g></g></g></g></g><clipPath id="ak"><path transform="scale(.24)" d="M0 0h5625v1593.75H0z"/></clipPath><g clip-path="url(#ak)"><clipPath id="al"><path transform="scale(.24)" d="M0 0h5625v1562.5H0z"/></clipPath><g clip-path="url(#al)"><clipPath id="am"><path transform="scale(.24)" d="M0 0h5625v1562.5H0z"/></clipPath><g clip-path="url(#am)"><clipPath id="an"><path transform="scale(.24)" d="m4817.377 683.916 30.108 184.212-65.226 10.66-30.108-184.211 65.226-10.66z"/></clipPath><g clip-path="url(#an)"><clipPath id="ao"><path transform="scale(.24)" d="M4832.415 775.927c-8.305-50.816-29.64-89.624-47.651-86.68-18.012 2.943-25.88 46.525-17.574 97.341 8.305 50.816 29.639 89.625 47.651 86.68 18.011-2.943 25.88-46.524 17.574-97.34z"/></clipPath><g clip-path="url(#ao)"><path d="m1156.17 164.14 7.216 44.15-15.654 2.558-7.216-44.15z" fill="#fff"/></g></g></g></g></g><clipPath id="ap"><path transform="scale(.24)" d="M0 0h5625v1593.75H0z"/></clipPath><g clip-path="url(#ap)"><clipPath id="aq"><path transform="scale(.24)" d="M0 0h5625v1562.5H0z"/></clipPath><g clip-path="url(#aq)"><clipPath id="ar"><path transform="scale(.24)" d="M0 0h5625v1562.5H0z"/></clipPath><g clip-path="url(#ar)"><clipPath id="as"><path transform="scale(.24)" d="M4644.195 772.305h169.239v23.293h-169.239z"/></clipPath><g clip-path="url(#as)"><clipPath id="at"><path transform="scale(.24)" d="M4644.195 772.305h169.238v23.293h-169.238z"/></clipPath><g clip-path="url(#at)"><path d="M1114.607 185.353h40.617v5.59h-40.617z" fill="#fff"/></g></g></g></g></g><clipPath id="au"><path transform="scale(.24)" d="M4118.877 721.481h112.5v345.473h-112.5z" fill-rule="evenodd"/></clipPath><g clip-path="url(#au)"><path d="M988.53 173.156h27v82.898h-27z" fill="#fff"/></g><clipPath id="av"><path transform="scale(.24)" d="M4903.733 721.481h112.5v345.473h-112.5z" fill-rule="evenodd"/></clipPath><g clip-path="url(#av)"><path d="M1176.896 173.156h27v82.898h-27z" fill="#fff"/></g><clipPath id="aw"><path transform="scale(.24)" d="M0 0h5625v1593.75H0z"/></clipPath><g clip-path="url(#aw)"><clipPath id="ax"><path transform="scale(.24)" d="M0 0h5625v1562.5H0z"/></clipPath><g clip-path="url(#ax)"><clipPath id="ay"><path transform="scale(.24)" d="M0 0h5625v1562.5H0z"/></clipPath><g clip-path="url(#ay)"><clipPath id="az"><path transform="scale(.24)" d="m4260.29 704.501 35.682 19.421-72.981 134.087-35.682-19.421 72.98-134.087z"/></clipPath><g clip-path="url(#az)"><clipPath id="aA"><path transform="scale(.24)" d="m4260.29 704.501 35.682 19.421-72.905 133.948-35.682-19.42L4260.29 704.5z"/></clipPath><g clip-path="url(#aA)"><path d="m1022.47 169.08 8.563 4.661-17.497 32.148-8.564-4.661z" fill="#fff"/></g></g></g></g></g><clipPath id="aB"><path transform="scale(.24)" d="M0 0h5625v1593.75H0z"/></clipPath><g clip-path="url(#aB)"><clipPath id="aC"><path transform="scale(.24)" d="M0 0h5625v1562.5H0z"/></clipPath><g clip-path="url(#aC)"><clipPath id="aD"><path transform="scale(.24)" d="M0 0h5625v1562.5H0z"/></clipPath><g clip-path="url(#aD)"><clipPath id="aE"><path transform="scale(.24)" d="m5045.385 707.266 35.682 19.421-72.981 134.087-35.682-19.421 72.981-134.087z"/></clipPath><g clip-path="url(#aE)"><clipPath id="aF"><path transform="scale(.24)" d="m5045.385 707.266 35.682 19.421-72.905 133.948-35.682-19.42 72.905-133.949z"/></clipPath><g clip-path="url(#aF)"><path d="m1210.892 169.744 8.564 4.661-17.497 32.147-8.564-4.66z" fill="#fff"/></g></g></g></g></g><clipPath id="aG"><path transform="scale(.24)" d="M0 0h5625v1562.5H0z" fill-rule="evenodd"/></clipPath><g clip-path="url(#aG)"><g opacity=".8"><clipPath id="aH"><path transform="matrix(.24 0 0 .24 865.44 56.88)" d="M0 0h803v1057H0z" fill-rule="evenodd"/></clipPath><g clip-path="url(#aH)"><path stroke-width="9.321033479999999" fill="none" stroke="#131516" d="M964.706 210.808h-64.537c.728 8.738 3.216 15.095 7.464 19.07 4.248 3.974 10.043 5.962 17.386 5.962 5.765 0 10.438-1.078 14.018-3.232s6.463-5.416 8.647-9.785h1.912l16.748 10.74c-3.276 7.04-8.222 12.744-14.837 17.114-6.614 4.369-15.444 6.553-26.488 6.553-10.377 0-19.343-1.972-26.898-5.916-7.555-3.945-13.38-9.816-17.477-17.614-4.096-7.797-6.144-17.31-6.144-28.536 0-11.409 2.154-21.027 6.463-28.855 4.308-7.828 10.134-13.67 17.477-17.523 7.342-3.853 15.595-5.78 24.758-5.78 14.2 0 25.078 3.763 32.633 11.288 7.555 7.524 11.333 18.569 11.333 33.133 0 5.28-.182 9.375-.546 12.288l-1.912 1.093zm-21.664-16.294c-.243-7.646-2.018-13.214-5.325-16.703-3.307-3.49-8.147-5.234-14.519-5.234-12.743 0-20.238 7.312-22.483 21.937h42.327zm46.059 60.805V154.918h24.486v14.928l1.911.364c2.428-5.583 5.613-9.679 9.558-12.288 3.944-2.61 8.738-3.914 14.382-3.914 5.704 0 10.043.97 13.017 2.912l-4.279 21.756-1.911.364c-1.639-.668-3.216-1.153-4.734-1.457-1.517-.303-3.367-.455-5.552-.455-7.04 0-12.41 2.473-16.112 7.419-3.701 4.945-5.552 12.88-5.552 23.803v46.969H989.1z"/><use xlink:href="#ab" transform="matrix(186.42008 0 0 -186.42008 874.5 257.23)" fill-opacity="0"/><use xlink:href="#ae" transform="matrix(186.42008 0 0 -186.42008 989.017 255.319)" fill-opacity="0"/><use xlink:href="#ab" transform="matrix(186.42008 0 0 -186.42008 874.5 257.23)" fill="#00bf63"/><use xlink:href="#ae" transform="matrix(186.42008 0 0 -186.42008 989.017 255.319)" fill="#00bf63"/></g></g><g opacity=".6"><clipPath id="aI"><path transform="matrix(.24 0 0 .24 1053.6 56.88)" d="M0 0h804v1057H0z" fill-rule="evenodd"/></clipPath><g clip-path="url(#aI)"><path stroke-width="9.321033479999999" fill="none" stroke="#131516" d="M1153.052 210.808h-64.537c.728 8.738 3.216 15.095 7.464 19.07 4.248 3.974 10.043 5.962 17.386 5.962 5.765 0 10.438-1.078 14.018-3.232s6.463-5.416 8.647-9.785h1.912l16.749 10.74c-3.277 7.04-8.223 12.744-14.838 17.114-6.614 4.369-15.444 6.553-26.488 6.553-10.377 0-19.343-1.972-26.898-5.916-7.555-3.945-13.38-9.816-17.477-17.614-4.096-7.797-6.144-17.31-6.144-28.536 0-11.409 2.154-21.027 6.463-28.855 4.308-7.828 10.134-13.67 17.477-17.523 7.342-3.853 15.595-5.78 24.759-5.78 14.2 0 25.077 3.763 32.632 11.288 7.555 7.524 11.333 18.569 11.333 33.133 0 5.28-.182 9.375-.546 12.288l-1.912 1.093zm-21.664-16.294c-.243-7.646-2.018-13.214-5.325-16.703-3.307-3.49-8.147-5.234-14.518-5.234-12.744 0-20.238 7.312-22.484 21.937h42.327zm46.059 60.805V154.918h24.486v14.928l1.911.364c2.428-5.583 5.614-9.679 9.558-12.288 3.944-2.61 8.738-3.914 14.382-3.914 5.704 0 10.043.97 13.017 2.912l-4.279 21.756-1.911.364c-1.639-.668-3.216-1.153-4.733-1.457-1.518-.303-3.368-.455-5.553-.455-7.04 0-12.41 2.473-16.111 7.419-3.702 4.945-5.553 12.88-5.553 23.803v46.969h-25.214z"/><use xlink:href="#ab" transform="matrix(186.42008 0 0 -186.42008 1062.846 257.23)" fill-opacity="0"/><use xlink:href="#ae" transform="matrix(186.42008 0 0 -186.42008 1177.363 255.319)" fill-opacity="0"/><use xlink:href="#ab" transform="matrix(186.42008 0 0 -186.42008 1062.846 257.23)" fill="#00bf63"/><use xlink:href="#ae" transform="matrix(186.42008 0 0 -186.42008 1177.363 255.319)" fill="#00bf63"/></g></g></g></svg>