<svg xmlns="http://www.w3.org/2000/svg" xmlns:xlink="http://www.w3.org/1999/xlink" width="500" height="100%" version="1.1" viewBox="0 0 1800 500" xml:space="preserve" style="fill-rule:evenodd;clip-rule:evenodd"><style>svg{--ink:rgb(19,21,22);--paper:#ffffff}@media (prefers-color-scheme:dark){svg{--ink:#c7ccd6;--paper:#1d212c}}</style><g><path d="M64.081,346.915L1721.15,346.915M64.081,299.091L1721.15,299.091M64.081,250.893L1721.15,250.893" style="fill:none;fill-rule:nonzero;stroke:var(--ink);stroke-width:4px"/></g><g><g><g><g><g><clipPath id="_clip1"><path d="M1207.26,203.017C1181.07,203.017 1159.84,234 1159.84,272.221C1159.84,310.442 1181.07,341.425 1207.26,341.425C1233.45,341.425 1254.68,310.441 1254.68,272.221C1254.68,234 1233.45,203.017 1207.26,203.017Z"/></clipPath><g clip-path="url(#_clip1)"><rect width="94.835" height="138.547" x="1159.84" y="203.017" style="fill:var(--paper);fill-rule:nonzero"/></g></g></g></g></g></g><g><g><g><g><clipPath id="_clip2"><path d="M1290.31,218.853L1299.94,277.801L1279.07,281.212L1269.43,222.265L1290.31,218.853L1290.31,218.853Z"/></clipPath><g clip-path="url(#_clip2)"><g><clipPath id="_clip3"><path d="M1295.12,248.297C1292.46,232.036 1285.63,219.617 1279.87,220.559C1274.11,221.501 1271.59,235.447 1274.25,251.708C1276.9,267.969 1283.73,280.388 1289.49,279.446C1295.26,278.504 1297.78,264.558 1295.12,248.297L1295.12,248.297Z"/></clipPath><g clip-path="url(#_clip3)"><path d="M1290.3,218.853L1299.92,277.72L1279.05,281.131L1269.43,222.264L1290.3,218.853Z" style="fill:var(--paper);fill-rule:nonzero"/></g></g></g></g></g></g></g><g><g><g><g><g><clipPath id="_clip4"><path d="M1458.28,203.553C1432.09,203.553 1410.86,234.417 1410.86,272.489C1410.86,310.561 1432.09,341.425 1458.28,341.425C1484.47,341.425 1505.7,310.561 1505.7,272.489C1505.7,234.416 1484.47,203.553 1458.28,203.553Z"/></clipPath><g clip-path="url(#_clip4)"><rect width="94.835" height="137.808" x="1410.86" y="203.552" style="fill:var(--paper);fill-rule:nonzero"/></g></g></g></g></g></g><g><g><g><g><clipPath id="_clip5"><path d="M1251.69,279.389L1296.28,310.172L1274.69,341.443L1230.1,310.66L1251.69,279.389L1251.69,279.389Z"/></clipPath><g clip-path="url(#_clip5)"><g><clipPath id="_clip6"><path d="M1251.69,279.389L1296.26,310.159L1274.67,341.429L1230.1,310.66L1251.69,279.389L1251.69,279.389Z"/></clipPath><g clip-path="url(#_clip6)"><path d="M1251.69,279.389L1296.28,310.172L1274.69,341.443L1230.1,310.66L1251.69,279.389Z" style="fill:var(--paper);fill-rule:nonzero"/></g></g></g></g></g></g></g><g><g><g><g><clipPath id="_clip7"><path d="M1490.07,270.326L1547.85,310.218L1526.26,341.488L1468.48,301.597L1490.07,270.326L1490.07,270.326Z"/></clipPath><g clip-path="url(#_clip7)"><g><clipPath id="_clip8"><path d="M1490.07,270.326L1547.76,310.158L1526.17,341.428L1468.48,301.597L1490.07,270.326Z"/></clipPath><g clip-path="url(#_clip8)"><path d="M1490.07,270.327L1547.73,310.133L1526.13,341.404L1468.48,301.597L1490.07,270.327Z" style="fill:var(--paper);fill-rule:nonzero"/></g></g></g></g></g></g></g><g><path d="M64.081,154.819L1721.15,154.819M64.081,203.017L1721.15,203.017" style="fill:none;fill-rule:nonzero;stroke:var(--ink);stroke-width:4px"/></g><g><g><g><g><clipPath id="_clip9"><path d="M469.207,211.207L570.542,211.207L570.542,336.688L469.206,336.688L469.207,211.207Z"/></clipPath><g clip-path="url(#_clip9)"><g><clipPath id="_clip10"><path d="M519.874,211.207C491.892,211.207 469.207,239.264 469.207,273.875C469.207,308.485 491.892,336.542 519.874,336.542C547.857,336.542 570.542,308.484 570.542,273.874C570.542,239.264 547.857,211.207 519.874,211.207Z"/></clipPath><g clip-path="url(#_clip10)"><path d="M469.207,211.207L570.541,211.207L570.541,336.688L469.208,336.688L469.207,211.207Z" style="fill:var(--paper);fill-rule:nonzero"/></g></g></g></g></g></g></g><g><g><g><g><g><clipPath id="_clip11"><path d="M820.541,211.207C787.035,211.207 759.874,239.264 759.874,273.875C759.874,308.485 787.035,336.542 820.541,336.542C854.047,336.542 881.209,308.484 881.209,273.874C881.209,239.264 854.047,211.207 820.541,211.207L820.541,211.207Z"/></clipPath><g clip-path="url(#_clip11)"><path d="M759.873,211.207L881.208,211.207L881.208,336.333L759.875,336.333L759.873,211.207Z" style="fill:var(--paper);fill-rule:nonzero"/></g></g></g></g></g></g><g><g><g><g><g><clipPath id="_clip12"><path d="M968.762,212.298C941.025,212.298 918.54,240.356 918.54,274.966C918.54,309.576 941.025,337.633 968.762,337.633C996.499,337.633 1018.98,309.576 1018.98,274.966C1018.98,240.356 996.499,212.298 968.762,212.298Z"/></clipPath><g clip-path="url(#_clip12)"><rect width="100.444" height="125.163" x="918.54" y="212.299" style="fill:var(--paper);fill-rule:nonzero"/></g></g></g></g></g></g><g><path d="M1721.15,346.375L1721.15,155.351" style="fill:none;fill-rule:nonzero;stroke:var(--ink);stroke-width:10px"/><path d="M1709.55,346.913L1709.55,154.817" style="fill:none;fill-rule:nonzero;stroke:var(--ink);stroke-width:6px"/></g><g><clipPath id="_clip13"><rect width="129" height="357" x="66.76" y="71.458"/></clipPath><g clip-path="url(#_clip13)"><path d="M139.841,268.16C134.551,269.632 129.779,272.92 125.356,277.939C120.932,283.044 118.763,288.668 118.763,294.725C118.763,298.533 120.064,302.859 122.58,307.445C125.095,312.119 128.912,315.493 133.856,317.656C135.504,318.003 136.285,318.868 136.285,320.08C136.285,320.512 135.677,320.945 134.203,321.291C126.309,319.3 119.803,315.06 114.772,308.744C109.741,302.34 107.139,295.072 106.965,286.765C107.225,277.852 109.915,269.545 115.032,261.931C120.237,254.229 126.917,248.777 135.071,245.576L129.085,214.857C115.727,225.933 104.884,237.441 96.469,249.556C88.056,261.584 83.719,274.649 83.371,288.756C83.538,295.058 84.862,301.276 87.275,307.1C89.704,313.071 93.347,318.435 98.204,323.367C108.007,333.145 120.757,338.251 136.284,338.771C141.577,338.424 147.215,337.472 153.287,335.915L139.841,268.16ZM146.087,267.295L159.62,333.837C172.977,328.473 179.657,316.791 179.657,298.965C178.876,292.995 177.141,287.631 174.192,282.872C171.329,278.025 167.512,274.219 162.656,271.449C157.797,268.68 152.333,267.295 146.087,267.295ZM128.307,177.303C131.168,175.572 134.465,172.543 138.021,168.303C141.577,164.149 145.048,159.217 148.344,153.68C151.727,148.055 154.416,142.344 156.411,136.547C158.407,130.836 159.36,125.384 159.36,120.365C159.36,118.201 159.187,116.039 158.753,114.135C158.407,111.02 157.452,108.597 155.804,106.953C154.156,105.395 152.073,104.529 149.471,104.529C144.267,104.529 139.583,107.732 135.419,114.135C132.209,119.673 129.52,126.249 127.612,133.691C125.617,141.219 124.489,148.661 124.316,156.189C124.749,164.756 126.137,171.765 128.307,177.303ZM122.84,182.321C118.945,168.36 116.761,153.976 116.335,139.488C116.423,130.143 117.376,121.404 119.197,113.269C120.933,105.136 123.448,98.127 126.744,92.069C129.955,86.012 133.684,81.425 137.848,78.311C141.577,75.541 144.267,74.071 145.741,74.071C146.869,74.071 147.824,74.504 148.691,75.283C149.557,76.061 150.687,77.359 152.073,79.089C162.395,93.713 167.6,111.365 167.6,131.96C167.6,141.739 166.299,151.257 163.696,160.775C161.181,170.207 157.451,179.207 152.507,187.6C147.475,196.08 141.576,203.435 134.724,209.752L141.751,243.845C145.567,243.412 148.169,243.067 149.644,243.067C156.236,243.067 162.135,244.451 167.6,247.22C173.065,249.989 177.749,253.709 181.565,258.469C185.383,263.141 188.332,268.507 190.413,274.563C192.408,280.621 193.536,286.937 193.536,293.515C193.536,303.725 190.847,313.071 185.469,321.464C180.091,329.857 172.024,336.001 161.181,339.981C161.875,344.221 163.088,350.365 164.911,358.24C166.645,366.2 167.947,372.517 168.815,377.191C169.681,381.863 170.028,386.363 170.028,390.776C170.028,397.612 168.38,403.669 165.084,409.033C161.701,414.399 157.191,418.553 151.465,421.495C145.827,424.436 139.581,425.908 132.816,425.908C123.273,425.908 114.947,423.225 107.833,417.947C100.72,412.581 96.903,405.4 96.556,396.227C96.816,392.16 97.771,388.352 99.505,384.719C101.24,381.084 103.583,378.141 106.619,375.892C109.568,373.556 113.125,372.345 117.201,372.085C120.584,372.085 123.793,373.036 126.831,374.853C129.816,376.765 132.289,379.38 134.031,382.468C135.8,385.705 136.724,389.336 136.719,393.025C136.719,398.131 134.984,402.457 131.515,406.005C128.044,409.552 123.621,411.369 118.328,411.369L116.333,411.369C119.717,416.561 125.268,419.244 132.989,419.244C136.892,419.244 140.883,418.379 144.873,416.821C148.949,415.177 152.333,413.015 155.196,410.245C158.057,407.476 159.967,404.535 160.747,401.419C162.221,397.872 162.916,392.939 162.916,386.795C162.916,382.641 162.481,378.488 161.701,374.335C160.92,370.268 159.707,364.816 158.057,358.067C156.409,351.404 155.196,346.212 154.501,342.664C149.196,343.991 143.748,344.659 138.28,344.655C128.825,344.655 119.891,342.751 111.476,338.857C103.063,334.964 95.689,329.597 89.269,322.676C82.937,315.753 77.993,307.965 74.436,299.139C70.957,290.408 69.133,281.106 69.059,271.708C69.405,262.881 71.053,254.401 74.176,246.441C77.299,238.393 81.289,230.779 86.233,223.684C91.179,216.588 96.296,210.097 101.588,204.3C106.965,198.589 113.992,191.233 122.84,182.321Z" style="fill:#00bf63"/><g><path d="M2669.33,10468C2588,10490.7 2514.67,10541.3 2446.67,10618.7C2378.67,10697.3 2345.33,10784 2345.33,10877.3C2345.33,10936 2365.33,11002.7 2404,11073.3C2442.67,11145.3 2501.33,11197.3 2577.33,11230.7C2602.67,11236 2614.67,11249.3 2614.67,11268C2614.67,11274.7 2605.33,11281.3 2582.67,11286.7C2461.33,11256 2361.33,11190.7 2284,11093.3C2206.67,10994.7 2166.67,10882.7 2164,10754.7C2168,10617.3 2209.33,10489.3 2288,10372C2368,10253.3 2470.67,10169.3 2596,10120L2504,9646.67C2298.67,9817.33 2132,9994.67 2002.67,10181.3C1873.33,10366.7 1806.67,10568 1801.33,10785.3C1804,10882.7 1824,10977.3 1861.33,11068C1898.67,11160 1954.67,11242.7 2029.33,11318.7C2180,11469.3 2376,11548 2614.67,11556C2696,11550.7 2782.67,11536 2876,11512L2669.33,10468ZM2765.33,10454.7L2973.33,11480C3178.67,11397.3 3281.33,11217.3 3281.33,10942.7C3269.33,10850.7 3242.67,10768 3197.33,10694.7C3153.33,10620 3094.67,10561.3 3020,10518.7C2945.33,10476 2861.33,10454.7 2765.33,10454.7ZM2492,9068C2536,9041.33 2586.67,8994.67 2641.33,8929.33C2696,8865.33 2749.33,8789.33 2800,8704C2852,8617.33 2893.33,8529.33 2924,8440C2954.67,8352 2969.33,8268 2969.33,8190.67C2969.33,8157.33 2966.67,8124 2960,8094.67C2954.67,8046.67 2940,8009.33 2914.67,7984C2889.33,7960 2857.33,7946.67 2817.33,7946.67C2737.33,7946.67 2665.33,7996 2601.33,8094.67C2552,8180 2510.67,8281.33 2481.33,8396C2450.67,8512 2433.33,8626.67 2430.67,8742.67C2437.33,8874.67 2458.67,8982.67 2492,9068ZM2408,9145.33C2348,8929.33 2314.67,8709.33 2308,8485.33C2309.33,8341.33 2324,8206.67 2352,8081.33C2378.67,7956 2417.33,7848 2468,7754.67C2517.33,7661.33 2574.67,7590.67 2638.67,7542.67C2696,7500 2737.33,7477.33 2760,7477.33C2777.33,7477.33 2792,7484 2805.33,7496C2818.67,7508 2836,7528 2857.33,7554.67C3016,7780 3096,8052 3096,8369.33C3096,8520 3076,8666.67 3036,8813.33C2997.33,8958.67 2940,9097.33 2864,9226.67C2786.67,9357.33 2696,9470.67 2590.67,9568L2698.67,10093.3C2757.33,10086.7 2797.33,10081.3 2820,10081.3C2921.33,10081.3 3012,10102.7 3096,10145.3C3180,10188 3252,10245.3 3310.67,10318.7C3369.33,10390.7 3414.67,10473.3 3446.67,10566.7C3477.33,10660 3494.67,10757.3 3494.67,10858.7C3494.67,11016 3453.33,11160 3370.67,11289.3C3288,11418.7 3164,11513.3 2997.33,11574.7C3008,11640 3026.67,11734.7 3054.67,11856C3081.33,11978.7 3101.33,12076 3114.67,12148C3128,12220 3133.33,12289.3 3133.33,12357.3C3133.33,12462.7 3108,12556 3057.33,12638.7C3005.33,12721.3 2936,12785.3 2848,12830.7C2761.33,12876 2665.33,12898.7 2561.33,12898.7C2414.67,12898.7 2286.67,12857.3 2177.33,12776C2068,12693.3 2009.33,12582.7 2004,12441.3C2008,12378.7 2022.67,12320 2049.33,12264C2076,12208 2112,12162.7 2158.67,12128C2204,12092 2258.67,12073.3 2321.33,12069.3C2373.33,12069.3 2422.67,12084 2469.33,12112C2514.67,12141.3 2552,12180 2580,12229.3C2606.67,12278.7 2621.33,12333.3 2621.33,12392C2621.33,12470.7 2594.67,12537.3 2541.33,12592C2488,12646.7 2420,12674.7 2338.67,12674.7L2308,12674.7C2360,12754.7 2445.33,12796 2564,12796C2624,12796 2685.33,12782.7 2746.67,12758.7C2809.33,12733.3 2861.33,12700 2905.33,12657.3C2949.33,12614.7 2978.67,12569.3 2990.67,12521.3C3013.33,12466.7 3024,12390.7 3024,12296C3024,12232 3017.33,12168 3005.33,12104C2993.33,12041.3 2974.67,11957.3 2949.33,11853.3C2924,11750.7 2905.33,11670.7 2894.67,11616C2814.67,11636 2732,11646.7 2645.33,11646.7C2500,11646.7 2362.67,11617.3 2233.33,11557.3C2104,11497.3 1990.67,11414.7 1892,11308C1794.67,11201.3 1718.67,11081.3 1664,10945.3C1610.67,10810.7 1582.67,10669.3 1581.33,10522.7C1586.67,10386.7 1612,10256 1660,10133.3C1708,10009.3 1769.33,9892 1845.33,9782.67C1921.33,9673.33 2000,9573.33 2081.33,9484C2164,9396 2272,9282.67 2408,9145.33Z" transform="matrix(0.06506,0,0,0.0649,-33.82,-411.197)" style="fill:none;fill-rule:nonzero;stroke:var(--ink);stroke-width:70.7px"/></g></g></g><g><g><g><g><g><clipPath id="_clip14"><path d="M665.008,211.207C644.389,211.207 627.674,239.264 627.674,273.875C627.674,308.485 644.389,336.542 665.008,336.542C685.627,336.542 702.342,308.484 702.342,273.874C702.342,239.264 685.627,211.207 665.008,211.207Z"/></clipPath><g clip-path="url(#_clip14)"><rect width="74.669" height="125.42" x="627.673" y="211.207" style="fill:var(--paper);fill-rule:nonzero"/></g></g></g></g></g></g><g><clipPath id="_clip15"><rect width="1800" height="500" x="0" y="0"/></clipPath><g clip-path="url(#_clip15)"><path d="M313.72,340.425L313.72,162.985L384.963,162.985C403.331,162.985 417.187,167.215 426.532,175.669C435.877,184.124 440.549,195.796 440.549,210.683C440.549,221.445 437.819,230.264 432.357,237.141C426.896,244.019 418.744,249.279 407.901,252.92L407.901,255.468C413.484,257.895 417.995,261.496 421.435,266.269C424.873,271.043 428.129,278.123 431.204,287.509L448.924,340.425L412.877,340.425L395.523,287.388C393.743,282.048 391.74,277.901 389.515,274.948C387.351,272.041 384.404,269.809 381.019,268.515C377.58,267.181 373.109,266.512 367.608,266.512L348.795,266.512L348.795,340.425L313.72,340.425ZM380.716,238.719C397.707,238.719 406.203,230.791 406.203,214.932C406.203,198.831 397.707,190.78 380.716,190.78L348.796,190.78L348.796,238.72L380.716,238.72L380.716,238.719ZM588.86,281.077L502.811,281.077C503.781,292.728 507.099,301.204 512.763,306.504C518.427,311.803 526.153,314.453 535.944,314.453C543.631,314.453 549.861,313.016 554.635,310.144C559.408,307.272 563.252,302.923 566.164,297.097L568.713,297.097L591.045,311.417C586.676,320.804 580.081,328.409 571.261,334.236C562.443,340.061 550.669,342.973 535.944,342.973C522.108,342.973 510.153,340.344 500.08,335.085C490.007,329.825 482.24,321.997 476.777,311.6C471.316,301.204 468.585,288.52 468.585,273.552C468.585,258.34 471.457,245.516 477.203,235.079C482.947,224.641 490.715,216.852 500.505,211.715C510.295,206.577 521.299,204.008 533.517,204.008C552.451,204.008 566.953,209.025 577.027,219.059C587.1,229.091 592.137,243.817 592.137,263.236C592.137,270.276 591.895,275.736 591.409,279.62L588.86,281.077ZM559.975,259.352C559.651,249.157 557.284,241.733 552.875,237.081C548.465,232.428 542.012,230.103 533.517,230.103C516.525,230.103 506.533,239.852 503.539,259.352L559.975,259.352ZM654.277,342.973C645.7,342.973 638.256,341.396 631.945,338.24C625.635,335.085 620.78,330.453 617.381,324.344C613.983,318.235 612.284,310.892 612.284,302.316C612.284,294.387 613.983,287.732 617.381,282.351C620.78,276.971 626.039,272.561 633.159,269.123C640.279,265.683 649.585,263.033 661.073,261.172C669.084,259.879 675.172,258.461 679.34,256.924C683.507,255.387 686.319,253.648 687.775,251.705C689.231,249.764 689.959,247.296 689.959,244.303C689.959,240.015 688.463,236.737 685.468,234.472C682.475,232.205 677.499,231.073 670.54,231.073C663.096,231.073 656.017,232.732 649.3,236.049C642.585,239.367 636.76,243.736 631.824,249.156L629.397,249.156L615.317,227.917C622.115,220.393 630.408,214.527 640.197,210.32C649.989,206.112 660.669,204.008 672.24,204.008C689.96,204.008 702.784,207.771 710.713,215.296C718.643,222.82 722.607,233.501 722.607,247.336L722.607,305.472C722.607,311.459 725.236,314.453 730.496,314.453C732.519,314.453 734.501,314.088 736.443,313.36L738.141,313.845L740.568,337.269C738.708,338.483 736.119,339.475 732.801,340.243C729.484,341.012 725.844,341.396 721.879,341.396C713.868,341.396 707.619,339.859 703.128,336.784C698.637,333.709 695.421,328.896 693.479,322.341L690.931,322.099C684.376,336.016 672.157,342.973 654.277,342.973ZM664.957,317.851C672.725,317.851 678.935,315.241 683.587,310.024C688.24,304.804 690.565,297.543 690.565,288.237L690.565,274.644L688.26,274.159C686.237,275.777 683.587,277.132 680.311,278.225C677.033,279.317 672.32,280.389 666.171,281.441C658.889,282.655 653.651,284.737 650.455,287.691C647.259,290.644 645.66,294.832 645.66,300.253C645.66,305.997 647.359,310.367 650.757,313.36C654.156,316.355 658.889,317.851 664.957,317.851ZM809.384,342.973C798.784,342.973 789.42,340.405 781.288,335.267C773.156,330.129 766.784,322.361 762.172,311.964C757.56,301.568 755.255,288.764 755.255,273.551C755.255,258.26 757.621,245.415 762.355,235.017C767.088,224.621 773.641,216.853 782.016,211.715C790.389,206.577 800.08,204.008 811.083,204.008C819.417,204.008 826.639,205.445 832.748,208.317C838.856,211.189 844.015,215.66 848.223,221.728L850.771,221.121L850.771,152.792L884.389,152.792L884.389,340.425L850.771,340.425L850.771,323.069L848.223,322.584C844.5,328.896 839.403,333.872 832.929,337.512C826.457,341.153 818.609,342.973 809.384,342.973ZM820.308,314.453C829.775,314.453 837.259,311.075 842.761,304.319C848.263,297.563 851.015,287.307 851.015,273.552C851.015,259.797 848.263,249.521 842.761,242.725C837.259,235.928 829.775,232.529 820.308,232.529C810.436,232.529 802.891,235.827 797.672,242.421C792.453,249.016 789.845,259.392 789.845,273.552C789.845,287.631 792.453,297.967 797.672,304.561C802.891,311.156 810.436,314.453 820.308,314.453ZM1035.98,281.077L949.928,281.077C950.899,292.728 954.216,301.204 959.88,306.504C965.544,311.803 973.271,314.453 983.061,314.453C990.748,314.453 996.977,313.016 1001.75,310.144C1006.52,307.272 1010.37,302.923 1013.28,297.097L1015.83,297.097L1038.16,311.417C1033.79,320.804 1027.2,328.409 1018.38,334.236C1009.56,340.061 997.787,342.973 983.061,342.973C969.225,342.973 957.271,340.344 947.197,335.085C937.124,329.825 929.356,321.997 923.895,311.6C918.433,301.204 915.703,288.52 915.703,273.552C915.703,258.34 918.575,245.516 924.319,235.079C930.064,224.641 937.832,216.852 947.621,211.715C957.412,206.577 968.416,204.008 980.635,204.008C999.568,204.008 1014.07,209.025 1024.14,219.059C1034.22,229.091 1039.25,243.817 1039.25,263.236C1039.25,270.276 1039.01,275.736 1038.53,279.62L1035.98,281.077ZM1007.09,259.352C1006.77,249.157 1004.4,241.733 999.992,237.081C995.581,232.428 989.129,230.103 980.633,230.103C963.643,230.103 953.649,239.852 950.656,259.352L1007.09,259.352ZM1068.5,340.425L1068.5,206.557L1101.15,206.557L1101.15,226.461L1103.7,226.947C1106.94,219.503 1111.18,214.041 1116.44,210.563C1121.7,207.083 1128.1,205.344 1135.62,205.344C1143.23,205.344 1149.01,206.637 1152.98,209.227L1147.27,238.235L1144.72,238.72C1142.54,237.829 1140.43,237.183 1138.41,236.777C1136.39,236.373 1133.92,236.171 1131.01,236.171C1121.62,236.171 1114.46,239.468 1109.53,246.063C1104.59,252.656 1102.12,263.236 1102.12,277.8L1102.12,340.425L1068.5,340.425Z" style="fill:none;fill-rule:nonzero;stroke:var(--ink);stroke-width:12.43px"/><g id="aa"><path d="M0,0L0,0.952L0.383,0.952C0.48,0.952 0.556,0.929 0.605,0.884C0.657,0.835 0.684,0.767 0.68,0.696C0.682,0.645 0.667,0.595 0.636,0.555C0.602,0.514 0.557,0.485 0.507,0.469L0.507,0.456C0.535,0.443 0.56,0.423 0.577,0.397C0.601,0.362 0.619,0.324 0.631,0.284L0.724,0L0.533,0L0.44,0.284C0.433,0.308 0.422,0.33 0.408,0.351C0.396,0.367 0.379,0.38 0.36,0.387C0.337,0.395 0.312,0.398 0.288,0.397L0.187,0.397L0.187,0L0,0M0.36,0.547C0.451,0.547 0.496,0.587 0.496,0.672C0.496,0.76 0.451,0.803 0.36,0.803L0.187,0.803L0.187,0.547L0.36,0.547Z" style="fill-rule:nonzero"/></g><g id="ab"><path d="M0.645,0.332L0.184,0.332C0.189,0.269 0.207,0.224 0.237,0.195C0.271,0.166 0.315,0.151 0.36,0.153C0.4,0.153 0.435,0.16 0.46,0.176C0.487,0.192 0.507,0.216 0.523,0.247L0.536,0.247L0.656,0.169C0.633,0.119 0.596,0.077 0.549,0.047C0.493,0.013 0.427,-0.003 0.361,0C0.294,-0.002 0.228,0.013 0.168,0.043C0.115,0.071 0.071,0.115 0.044,0.168C0.013,0.231 -0.002,0.301 0,0.372C0,0.453 0.016,0.523 0.047,0.579C0.074,0.632 0.118,0.676 0.171,0.704C0.225,0.732 0.286,0.746 0.348,0.745C0.449,0.747 0.528,0.72 0.581,0.667C0.635,0.613 0.663,0.533 0.663,0.429C0.663,0.4 0.662,0.37 0.659,0.34L0.645,0.332M0.491,0.448C0.488,0.503 0.476,0.543 0.451,0.568C0.429,0.593 0.395,0.605 0.349,0.605C0.257,0.605 0.204,0.552 0.188,0.448L0.491,0.448Z" style="fill-rule:nonzero"/></g><g id="ac"><path d="M0.225,0C0.184,-0.001 0.143,0.008 0.105,0.025C0.073,0.042 0.046,0.068 0.028,0.1C0.009,0.137 -0.001,0.177 0,0.219C0,0.26 0.009,0.296 0.027,0.325C0.045,0.353 0.073,0.379 0.112,0.396C0.159,0.417 0.21,0.432 0.261,0.439C0.295,0.443 0.328,0.451 0.36,0.461C0.377,0.466 0.393,0.476 0.405,0.489C0.414,0.501 0.418,0.515 0.417,0.529C0.417,0.552 0.408,0.569 0.392,0.583C0.376,0.595 0.349,0.6 0.312,0.6C0.273,0.6 0.235,0.591 0.2,0.573C0.165,0.556 0.133,0.532 0.107,0.503L0.093,0.503L0.016,0.617C0.053,0.657 0.096,0.689 0.149,0.711C0.203,0.735 0.26,0.745 0.323,0.745C0.416,0.745 0.485,0.725 0.528,0.685C0.571,0.645 0.592,0.587 0.592,0.512L0.592,0.203C0.592,0.171 0.605,0.155 0.635,0.155C0.645,0.155 0.656,0.156 0.667,0.16L0.675,0.156L0.688,0.031C0.675,0.023 0.661,0.017 0.647,0.013C0.627,0.009 0.607,0.008 0.587,0.008C0.551,0.006 0.516,0.015 0.485,0.033C0.46,0.052 0.442,0.08 0.435,0.111L0.421,0.112C0.387,0.037 0.32,0 0.224,0M0.281,0.135C0.323,0.135 0.356,0.148 0.381,0.176C0.407,0.204 0.419,0.243 0.419,0.293L0.419,0.367L0.405,0.369C0.393,0.36 0.38,0.352 0.365,0.347C0.34,0.34 0.315,0.334 0.289,0.331C0.258,0.328 0.229,0.315 0.204,0.296C0.188,0.28 0.179,0.259 0.179,0.229C0.179,0.199 0.188,0.176 0.205,0.159C0.228,0.141 0.256,0.132 0.284,0.135L0.281,0.135Z" style="fill-rule:nonzero"/></g><g id="ad"><path d="M0.291,0C0.237,-0.001 0.184,0.012 0.139,0.04C0.093,0.071 0.058,0.115 0.037,0.167C0.011,0.232 -0.002,0.302 0,0.372C0,0.455 0.013,0.523 0.037,0.579C0.064,0.635 0.099,0.676 0.144,0.704C0.188,0.731 0.24,0.745 0.3,0.745C0.34,0.747 0.38,0.739 0.416,0.723C0.45,0.707 0.478,0.682 0.499,0.651L0.512,0.653L0.512,1.02L0.693,1.02L0.693,0.013L0.512,0.013L0.512,0.107L0.499,0.109C0.479,0.076 0.451,0.048 0.417,0.029C0.378,0.008 0.334,-0.002 0.289,-0M0.348,0.153C0.394,0.151 0.439,0.171 0.468,0.207C0.499,0.244 0.513,0.299 0.513,0.373C0.513,0.448 0.5,0.503 0.469,0.539C0.44,0.575 0.396,0.595 0.349,0.593C0.302,0.596 0.257,0.576 0.227,0.54C0.2,0.504 0.187,0.448 0.187,0.373C0.187,0.297 0.2,0.241 0.227,0.205C0.257,0.169 0.302,0.149 0.349,0.152L0.348,0.153Z" style="fill-rule:nonzero"/></g><g id="ae"><path d="M0,0L0,0.719L0.175,0.719L0.175,0.612L0.188,0.609C0.207,0.649 0.228,0.677 0.257,0.696C0.288,0.715 0.324,0.725 0.36,0.724C0.4,0.724 0.432,0.717 0.453,0.704L0.423,0.547L0.409,0.547C0.385,0.556 0.359,0.561 0.333,0.56C0.289,0.562 0.247,0.542 0.22,0.507C0.193,0.471 0.18,0.415 0.18,0.336L0.18,0L0,0Z" style="fill-rule:nonzero"/></g><g id="aa1"><path d="M0,0L0,0.952L0.383,0.952C0.48,0.952 0.556,0.929 0.605,0.884C0.657,0.835 0.684,0.767 0.68,0.696C0.682,0.645 0.667,0.595 0.636,0.555C0.602,0.514 0.557,0.485 0.507,0.469L0.507,0.456C0.535,0.443 0.56,0.423 0.577,0.397C0.601,0.362 0.619,0.324 0.631,0.284L0.724,0L0.533,0L0.44,0.284C0.433,0.308 0.422,0.33 0.408,0.351C0.396,0.367 0.379,0.38 0.36,0.387C0.337,0.395 0.312,0.398 0.288,0.397L0.187,0.397L0.187,0L0,0M0.36,0.547C0.451,0.547 0.496,0.587 0.496,0.672C0.496,0.76 0.451,0.803 0.36,0.803L0.187,0.803L0.187,0.547L0.36,0.547Z" transform="matrix(186.42,0,0,-186.42,313.72,340.425)" style="fill-opacity:0;fill-rule:nonzero"/></g><g id="ab1"><path d="M0.645,0.332L0.184,0.332C0.189,0.269 0.207,0.224 0.237,0.195C0.271,0.166 0.315,0.151 0.36,0.153C0.4,0.153 0.435,0.16 0.46,0.176C0.487,0.192 0.507,0.216 0.523,0.247L0.536,0.247L0.656,0.169C0.633,0.119 0.596,0.077 0.549,0.047C0.493,0.013 0.427,-0.003 0.361,0C0.294,-0.002 0.228,0.013 0.168,0.043C0.115,0.071 0.071,0.115 0.044,0.168C0.013,0.231 -0.002,0.301 0,0.372C0,0.453 0.016,0.523 0.047,0.579C0.074,0.632 0.118,0.676 0.171,0.704C0.225,0.732 0.286,0.746 0.348,0.745C0.449,0.747 0.528,0.72 0.581,0.667C0.635,0.613 0.663,0.533 0.663,0.429C0.663,0.4 0.662,0.37 0.659,0.34L0.645,0.332M0.491,0.448C0.488,0.503 0.476,0.543 0.451,0.568C0.429,0.593 0.395,0.605 0.349,0.605C0.257,0.605 0.204,0.552 0.188,0.448L0.491,0.448Z" transform="matrix(186.42,0,0,-186.42,468.467,342.973)" style="fill-opacity:0;fill-rule:nonzero"/></g><g id="ac1"><path d="M0.225,0C0.184,-0.001 0.143,0.008 0.105,0.025C0.073,0.042 0.046,0.068 0.028,0.1C0.009,0.137 -0.001,0.177 0,0.219C0,0.26 0.009,0.296 0.027,0.325C0.045,0.353 0.073,0.379 0.112,0.396C0.159,0.417 0.21,0.432 0.261,0.439C0.295,0.443 0.328,0.451 0.36,0.461C0.377,0.466 0.393,0.476 0.405,0.489C0.414,0.501 0.418,0.515 0.417,0.529C0.417,0.552 0.408,0.569 0.392,0.583C0.376,0.595 0.349,0.6 0.312,0.6C0.273,0.6 0.235,0.591 0.2,0.573C0.165,0.556 0.133,0.532 0.107,0.503L0.093,0.503L0.016,0.617C0.053,0.657 0.096,0.689 0.149,0.711C0.203,0.735 0.26,0.745 0.323,0.745C0.416,0.745 0.485,0.725 0.528,0.685C0.571,0.645 0.592,0.587 0.592,0.512L0.592,0.203C0.592,0.171 0.605,0.155 0.635,0.155C0.645,0.155 0.656,0.156 0.667,0.16L0.675,0.156L0.688,0.031C0.675,0.023 0.661,0.017 0.647,0.013C0.627,0.009 0.607,0.008 0.587,0.008C0.551,0.006 0.516,0.015 0.485,0.033C0.46,0.052 0.442,0.08 0.435,0.111L0.421,0.112C0.387,0.037 0.32,0 0.224,0M0.281,0.135C0.323,0.135 0.356,0.148 0.381,0.176C0.407,0.204 0.419,0.243 0.419,0.293L0.419,0.367L0.405,0.369C0.393,0.36 0.38,0.352 0.365,0.347C0.34,0.34 0.315,0.334 0.289,0.331C0.258,0.328 0.229,0.315 0.204,0.296C0.188,0.28 0.179,0.259 0.179,0.229C0.179,0.199 0.188,0.176 0.205,0.159C0.228,0.141 0.256,0.132 0.284,0.135L0.281,0.135Z" transform="matrix(186.42,0,0,-186.42,612.053,342.973)" style="fill-opacity:0;fill-rule:nonzero"/></g><g id="ad1"><path d="M0.291,0C0.237,-0.001 0.184,0.012 0.139,0.04C0.093,0.071 0.058,0.115 0.037,0.167C0.011,0.232 -0.002,0.302 0,0.372C0,0.455 0.013,0.523 0.037,0.579C0.064,0.635 0.099,0.676 0.144,0.704C0.188,0.731 0.24,0.745 0.3,0.745C0.34,0.747 0.38,0.739 0.416,0.723C0.45,0.707 0.478,0.682 0.499,0.651L0.512,0.653L0.512,1.02L0.693,1.02L0.693,0.013L0.512,0.013L0.512,0.107L0.499,0.109C0.479,0.076 0.451,0.048 0.417,0.029C0.378,0.008 0.334,-0.002 0.289,-0M0.348,0.153C0.394,0.151 0.439,0.171 0.468,0.207C0.499,0.244 0.513,0.299 0.513,0.373C0.513,0.448 0.5,0.503 0.469,0.539C0.44,0.575 0.396,0.595 0.349,0.593C0.302,0.596 0.257,0.576 0.227,0.54C0.2,0.504 0.187,0.448 0.187,0.373C0.187,0.297 0.2,0.241 0.227,0.205C0.257,0.169 0.302,0.149 0.349,0.152L0.348,0.153Z" transform="matrix(186.42,0,0,-186.42,755.056,342.973)" style="fill-opacity:0;fill-rule:nonzero"/></g><g id="ab2"><path d="M0.645,0.332L0.184,0.332C0.189,0.269 0.207,0.224 0.237,0.195C0.271,0.166 0.315,0.151 0.36,0.153C0.4,0.153 0.435,0.16 0.46,0.176C0.487,0.192 0.507,0.216 0.523,0.247L0.536,0.247L0.656,0.169C0.633,0.119 0.596,0.077 0.549,0.047C0.493,0.013 0.427,-0.003 0.361,0C0.294,-0.002 0.228,0.013 0.168,0.043C0.115,0.071 0.071,0.115 0.044,0.168C0.013,0.231 -0.002,0.301 0,0.372C0,0.453 0.016,0.523 0.047,0.579C0.074,0.632 0.118,0.676 0.171,0.704C0.225,0.732 0.286,0.746 0.348,0.745C0.449,0.747 0.528,0.72 0.581,0.667C0.635,0.613 0.663,0.533 0.663,0.429C0.663,0.4 0.662,0.37 0.659,0.34L0.645,0.332M0.491,0.448C0.488,0.503 0.476,0.543 0.451,0.568C0.429,0.593 0.395,0.605 0.349,0.605C0.257,0.605 0.204,0.552 0.188,0.448L0.491,0.448Z" transform="matrix(186.42,0,0,-186.42,915.627,342.973)" style="fill-opacity:0;fill-rule:nonzero"/></g><g id="ae1"><path d="M0,0L0,0.719L0.175,0.719L0.175,0.612L0.188,0.609C0.207,0.649 0.228,0.677 0.257,0.696C0.288,0.715 0.324,0.725 0.36,0.724C0.4,0.724 0.432,0.717 0.453,0.704L0.423,0.547L0.409,0.547C0.385,0.556 0.359,0.561 0.333,0.56C0.289,0.562 0.247,0.542 0.22,0.507C0.193,0.471 0.18,0.415 0.18,0.336L0.18,0L0,0Z" transform="matrix(186.42,0,0,-186.42,1068.31,340.425)" style="fill-opacity:0;fill-rule:nonzero"/></g><g><g id="aa2"><path d="M0,0L0,0.952L0.383,0.952C0.48,0.952 0.556,0.929 0.605,0.884C0.657,0.835 0.684,0.767 0.68,0.696C0.682,0.645 0.667,0.595 0.636,0.555C0.602,0.514 0.557,0.485 0.507,0.469L0.507,0.456C0.535,0.443 0.56,0.423 0.577,0.397C0.601,0.362 0.619,0.324 0.631,0.284L0.724,0L0.533,0L0.44,0.284C0.433,0.308 0.422,0.33 0.408,0.351C0.396,0.367 0.379,0.38 0.36,0.387C0.337,0.395 0.312,0.398 0.288,0.397L0.187,0.397L0.187,0L0,0M0.36,0.547C0.451,0.547 0.496,0.587 0.496,0.672C0.496,0.76 0.451,0.803 0.36,0.803L0.187,0.803L0.187,0.547L0.36,0.547Z" transform="matrix(186.42,0,0,-186.42,313.72,340.425)" style="fill:#00bf63;fill-rule:nonzero"/></g><g id="ab3"><path d="M0.645,0.332L0.184,0.332C0.189,0.269 0.207,0.224 0.237,0.195C0.271,0.166 0.315,0.151 0.36,0.153C0.4,0.153 0.435,0.16 0.46,0.176C0.487,0.192 0.507,0.216 0.523,0.247L0.536,0.247L0.656,0.169C0.633,0.119 0.596,0.077 0.549,0.047C0.493,0.013 0.427,-0.003 0.361,0C0.294,-0.002 0.228,0.013 0.168,0.043C0.115,0.071 0.071,0.115 0.044,0.168C0.013,0.231 -0.002,0.301 0,0.372C0,0.453 0.016,0.523 0.047,0.579C0.074,0.632 0.118,0.676 0.171,0.704C0.225,0.732 0.286,0.746 0.348,0.745C0.449,0.747 0.528,0.72 0.581,0.667C0.635,0.613 0.663,0.533 0.663,0.429C0.663,0.4 0.662,0.37 0.659,0.34L0.645,0.332M0.491,0.448C0.488,0.503 0.476,0.543 0.451,0.568C0.429,0.593 0.395,0.605 0.349,0.605C0.257,0.605 0.204,0.552 0.188,0.448L0.491,0.448Z" transform="matrix(186.42,0,0,-186.42,468.467,342.973)" style="fill:#00bf63;fill-rule:nonzero"/></g><g id="ac2"><path d="M0.225,0C0.184,-0.001 0.143,0.008 0.105,0.025C0.073,0.042 0.046,0.068 0.028,0.1C0.009,0.137 -0.001,0.177 0,0.219C0,0.26 0.009,0.296 0.027,0.325C0.045,0.353 0.073,0.379 0.112,0.396C0.159,0.417 0.21,0.432 0.261,0.439C0.295,0.443 0.328,0.451 0.36,0.461C0.377,0.466 0.393,0.476 0.405,0.489C0.414,0.501 0.418,0.515 0.417,0.529C0.417,0.552 0.408,0.569 0.392,0.583C0.376,0.595 0.349,0.6 0.312,0.6C0.273,0.6 0.235,0.591 0.2,0.573C0.165,0.556 0.133,0.532 0.107,0.503L0.093,0.503L0.016,0.617C0.053,0.657 0.096,0.689 0.149,0.711C0.203,0.735 0.26,0.745 0.323,0.745C0.416,0.745 0.485,0.725 0.528,0.685C0.571,0.645 0.592,0.587 0.592,0.512L0.592,0.203C0.592,0.171 0.605,0.155 0.635,0.155C0.645,0.155 0.656,0.156 0.667,0.16L0.675,0.156L0.688,0.031C0.675,0.023 0.661,0.017 0.647,0.013C0.627,0.009 0.607,0.008 0.587,0.008C0.551,0.006 0.516,0.015 0.485,0.033C0.46,0.052 0.442,0.08 0.435,0.111L0.421,0.112C0.387,0.037 0.32,0 0.224,0M0.281,0.135C0.323,0.135 0.356,0.148 0.381,0.176C0.407,0.204 0.419,0.243 0.419,0.293L0.419,0.367L0.405,0.369C0.393,0.36 0.38,0.352 0.365,0.347C0.34,0.34 0.315,0.334 0.289,0.331C0.258,0.328 0.229,0.315 0.204,0.296C0.188,0.28 0.179,0.259 0.179,0.229C0.179,0.199 0.188,0.176 0.205,0.159C0.228,0.141 0.256,0.132 0.284,0.135L0.281,0.135Z" transform="matrix(186.42,0,0,-186.42,612.053,342.973)" style="fill:#00bf63;fill-rule:nonzero"/></g><g id="ad2"><path d="M0.291,0C0.237,-0.001 0.184,0.012 0.139,0.04C0.093,0.071 0.058,0.115 0.037,0.167C0.011,0.232 -0.002,0.302 0,0.372C0,0.455 0.013,0.523 0.037,0.579C0.064,0.635 0.099,0.676 0.144,0.704C0.188,0.731 0.24,0.745 0.3,0.745C0.34,0.747 0.38,0.739 0.416,0.723C0.45,0.707 0.478,0.682 0.499,0.651L0.512,0.653L0.512,1.02L0.693,1.02L0.693,0.013L0.512,0.013L0.512,0.107L0.499,0.109C0.479,0.076 0.451,0.048 0.417,0.029C0.378,0.008 0.334,-0.002 0.289,-0M0.348,0.153C0.394,0.151 0.439,0.171 0.468,0.207C0.499,0.244 0.513,0.299 0.513,0.373C0.513,0.448 0.5,0.503 0.469,0.539C0.44,0.575 0.396,0.595 0.349,0.593C0.302,0.596 0.257,0.576 0.227,0.54C0.2,0.504 0.187,0.448 0.187,0.373C0.187,0.297 0.2,0.241 0.227,0.205C0.257,0.169 0.302,0.149 0.349,0.152L0.348,0.153Z" transform="matrix(186.42,0,0,-186.42,755.056,342.973)" style="fill:#00bf63;fill-rule:nonzero"/></g><g id="ab4"><path d="M0.645,0.332L0.184,0.332C0.189,0.269 0.207,0.224 0.237,0.195C0.271,0.166 0.315,0.151 0.36,0.153C0.4,0.153 0.435,0.16 0.46,0.176C0.487,0.192 0.507,0.216 0.523,0.247L0.536,0.247L0.656,0.169C0.633,0.119 0.596,0.077 0.549,0.047C0.493,0.013 0.427,-0.003 0.361,0C0.294,-0.002 0.228,0.013 0.168,0.043C0.115,0.071 0.071,0.115 0.044,0.168C0.013,0.231 -0.002,0.301 0,0.372C0,0.453 0.016,0.523 0.047,0.579C0.074,0.632 0.118,0.676 0.171,0.704C0.225,0.732 0.286,0.746 0.348,0.745C0.449,0.747 0.528,0.72 0.581,0.667C0.635,0.613 0.663,0.533 0.663,0.429C0.663,0.4 0.662,0.37 0.659,0.34L0.645,0.332M0.491,0.448C0.488,0.503 0.476,0.543 0.451,0.568C0.429,0.593 0.395,0.605 0.349,0.605C0.257,0.605 0.204,0.552 0.188,0.448L0.491,0.448Z" transform="matrix(186.42,0,0,-186.42,915.627,342.973)" style="fill:#00bf63;fill-rule:nonzero"/></g><g id="ae2"><path d="M0,0L0,0.719L0.175,0.719L0.175,0.612L0.188,0.609C0.207,0.649 0.228,0.677 0.257,0.696C0.288,0.715 0.324,0.725 0.36,0.724C0.4,0.724 0.432,0.717 0.453,0.704L0.423,0.547L0.409,0.547C0.385,0.556 0.359,0.561 0.333,0.56C0.289,0.562 0.247,0.542 0.22,0.507C0.193,0.471 0.18,0.415 0.18,0.336L0.18,0L0,0Z" transform="matrix(186.42,0,0,-186.42,1068.31,340.425)" style="fill:#00bf63;fill-rule:nonzero"/></g></g></g></g><g><g><g><g><g><clipPath id="_clip16"><rect width="54.156" height="7.454" x="1234.48" y="247.166"/></clipPath><g clip-path="url(#_clip16)"><rect width="54.156" height="7.453" x="1234.48" y="247.165" style="fill:var(--paper);fill-rule:nonzero"/></g></g></g></g></g></g><g><g><g><g><clipPath id="_clip17"><path d="M1541.56,218.853L1551.19,277.801L1530.32,281.212L1520.69,222.265L1541.56,218.853L1541.56,218.853Z"/></clipPath><g clip-path="url(#_clip17)"><g><clipPath id="_clip18"><path d="M1546.37,248.297C1543.72,232.036 1536.89,219.617 1531.12,220.559C1525.36,221.501 1522.84,235.447 1525.5,251.708C1528.16,267.969 1534.99,280.388 1540.75,279.446C1546.51,278.504 1549.03,264.558 1546.37,248.297L1546.37,248.297Z"/></clipPath><g clip-path="url(#_clip18)"><path d="M1541.56,218.853L1551.18,277.72L1530.31,281.131L1520.69,222.264L1541.56,218.853Z" style="fill:var(--paper);fill-rule:nonzero"/></g></g></g></g></g></g></g><g><g><g><g><g><clipPath id="_clip19"><rect width="54.156" height="7.454" x="1486.14" y="247.138"/></clipPath><g clip-path="url(#_clip19)"><rect width="54.156" height="7.453" x="1486.14" y="247.137" style="fill:var(--paper);fill-rule:nonzero"/></g></g></g></g></g></g><g><clipPath id="_clip20"><rect width="36" height="110.551" x="1318.04" y="230.874"/></clipPath><g clip-path="url(#_clip20)"><rect width="36" height="110.531" x="1318.04" y="230.875" style="fill:var(--paper);fill-rule:nonzero"/></g></g><g><clipPath id="_clip21"><rect width="36" height="110.551" x="1569.19" y="230.874"/></clipPath><g clip-path="url(#_clip21)"><rect width="36" height="110.531" x="1569.19" y="230.875" style="fill:var(--paper);fill-rule:nonzero"/></g></g><g><g><g><g><clipPath id="_clip22"><path d="M1363.29,225.44L1374.71,231.655L1351.36,274.563L1339.94,268.348L1363.29,225.44L1363.29,225.44Z"/></clipPath><g clip-path="url(#_clip22)"><g><clipPath id="_clip23"><path d="M1363.29,225.44L1374.71,231.655L1351.38,274.518L1339.96,268.304L1363.29,225.44L1363.29,225.44Z"/></clipPath><g clip-path="url(#_clip23)"><path d="M1363.29,225.44L1374.71,231.655L1351.38,274.519L1339.96,268.304L1363.29,225.44Z" style="fill:var(--paper);fill-rule:nonzero"/></g></g></g></g></g></g></g><g><g><g><g><clipPath id="_clip24"><path d="M1614.52,226.325L1625.94,232.54L1602.59,275.448L1591.17,269.233L1614.52,226.325Z"/></clipPath><g clip-path="url(#_clip24)"><g><clipPath id="_clip25"><path d="M1614.52,226.325L1625.94,232.54L1602.61,275.403L1591.19,269.189L1614.52,226.325Z"/></clipPath><g clip-path="url(#_clip25)"><path d="M1614.52,226.325L1625.94,232.54L1602.61,275.403L1591.19,269.189L1614.52,226.325Z" style="fill:var(--paper);fill-rule:nonzero"/></g></g></g></g></g></g></g><g><g opacity=".8"><g><clipPath id="_clip26"><rect width="256.96" height="338.24" x="1153.92" y="75.84"/></clipPath><g clip-path="url(#_clip26)"><path d="M1286.28,281.077L1200.23,281.077C1201.2,292.728 1204.51,301.204 1210.18,306.504C1215.84,311.803 1223.57,314.453 1233.36,314.453C1241.05,314.453 1247.28,313.016 1252.05,310.144C1256.82,307.272 1260.67,302.923 1263.58,297.097L1266.13,297.097L1288.46,311.417C1284.09,320.804 1277.5,328.409 1268.68,334.236C1259.86,340.061 1248.08,342.973 1233.36,342.973C1219.52,342.973 1207.57,340.344 1197.5,335.085C1187.42,329.825 1179.65,321.997 1174.19,311.6C1168.73,301.204 1166,288.52 1166,273.552C1166,258.34 1168.87,245.516 1174.62,235.079C1180.36,224.641 1188.13,216.852 1197.92,211.715C1207.71,206.577 1218.71,204.008 1230.93,204.008C1249.86,204.008 1264.37,209.025 1274.44,219.059C1284.52,229.091 1289.55,243.817 1289.55,263.236C1289.55,270.276 1289.31,275.736 1288.82,279.62L1286.28,281.077ZM1257.39,259.352C1257.07,249.157 1254.7,241.733 1250.29,237.081C1245.88,232.428 1239.43,230.103 1230.93,230.103C1213.94,230.103 1203.95,239.852 1200.95,259.352L1257.39,259.352ZM1318.8,340.425L1318.8,206.557L1351.45,206.557L1351.45,226.461L1354,226.947C1357.24,219.503 1361.48,214.041 1366.74,210.563C1372,207.083 1378.39,205.344 1385.92,205.344C1393.52,205.344 1399.31,206.637 1403.27,209.227L1397.57,238.235L1395.02,238.72C1392.84,237.829 1390.73,237.183 1388.71,236.777C1386.68,236.373 1384.22,236.171 1381.31,236.171C1371.92,236.171 1364.76,239.468 1359.82,246.063C1354.89,252.656 1352.42,263.236 1352.42,277.8L1352.42,340.425L1318.8,340.425L1318.8,340.425Z" style="fill:none;fill-rule:nonzero;stroke:var(--ink);stroke-width:12.43px"/><g id="ab5"><path d="M0.645,0.332L0.184,0.332C0.189,0.269 0.207,0.224 0.237,0.195C0.271,0.166 0.315,0.151 0.36,0.153C0.4,0.153 0.435,0.16 0.46,0.176C0.487,0.192 0.507,0.216 0.523,0.247L0.536,0.247L0.656,0.169C0.633,0.119 0.596,0.077 0.549,0.047C0.493,0.013 0.427,-0.003 0.361,0C0.294,-0.002 0.228,0.013 0.168,0.043C0.115,0.071 0.071,0.115 0.044,0.168C0.013,0.231 -0.002,0.301 0,0.372C0,0.453 0.016,0.523 0.047,0.579C0.074,0.632 0.118,0.676 0.171,0.704C0.225,0.732 0.286,0.746 0.348,0.745C0.449,0.747 0.528,0.72 0.581,0.667C0.635,0.613 0.663,0.533 0.663,0.429C0.663,0.4 0.662,0.37 0.659,0.34L0.645,0.332M0.491,0.448C0.488,0.503 0.476,0.543 0.451,0.568C0.429,0.593 0.395,0.605 0.349,0.605C0.257,0.605 0.204,0.552 0.188,0.448L0.491,0.448Z" transform="matrix(186.42,0,0,-186.42,1166,342.973)" style="fill-opacity:0;fill-rule:nonzero"/></g><g id="ae3"><path d="M0,0L0,0.719L0.175,0.719L0.175,0.612L0.188,0.609C0.207,0.649 0.228,0.677 0.257,0.696C0.288,0.715 0.324,0.725 0.36,0.724C0.4,0.724 0.432,0.717 0.453,0.704L0.423,0.547L0.409,0.547C0.385,0.556 0.359,0.561 0.333,0.56C0.289,0.562 0.247,0.542 0.22,0.507C0.193,0.471 0.18,0.415 0.18,0.336L0.18,0L0,0Z" transform="matrix(186.42,0,0,-186.42,1318.69,340.425)" style="fill-opacity:0;fill-rule:nonzero"/></g><g id="ab6"><path d="M0.645,0.332L0.184,0.332C0.189,0.269 0.207,0.224 0.237,0.195C0.271,0.166 0.315,0.151 0.36,0.153C0.4,0.153 0.435,0.16 0.46,0.176C0.487,0.192 0.507,0.216 0.523,0.247L0.536,0.247L0.656,0.169C0.633,0.119 0.596,0.077 0.549,0.047C0.493,0.013 0.427,-0.003 0.361,0C0.294,-0.002 0.228,0.013 0.168,0.043C0.115,0.071 0.071,0.115 0.044,0.168C0.013,0.231 -0.002,0.301 0,0.372C0,0.453 0.016,0.523 0.047,0.579C0.074,0.632 0.118,0.676 0.171,0.704C0.225,0.732 0.286,0.746 0.348,0.745C0.449,0.747 0.528,0.72 0.581,0.667C0.635,0.613 0.663,0.533 0.663,0.429C0.663,0.4 0.662,0.37 0.659,0.34L0.645,0.332M0.491,0.448C0.488,0.503 0.476,0.543 0.451,0.568C0.429,0.593 0.395,0.605 0.349,0.605C0.257,0.605 0.204,0.552 0.188,0.448L0.491,0.448Z" transform="matrix(186.42,0,0,-186.42,1166,342.973)" style="fill:#00bf63;fill-rule:nonzero"/></g><g id="ae4"><path d="M0,0L0,0.719L0.175,0.719L0.175,0.612L0.188,0.609C0.207,0.649 0.228,0.677 0.257,0.696C0.288,0.715 0.324,0.725 0.36,0.724C0.4,0.724 0.432,0.717 0.453,0.704L0.423,0.547L0.409,0.547C0.385,0.556 0.359,0.561 0.333,0.56C0.289,0.562 0.247,0.542 0.22,0.507C0.193,0.471 0.18,0.415 0.18,0.336L0.18,0L0,0Z" transform="matrix(186.42,0,0,-186.42,1318.69,340.425)" style="fill:#00bf63;fill-rule:nonzero"/></g></g></g></g><g opacity=".6"><g><clipPath id="_clip27"><rect width="257.28" height="338.24" x="1404.8" y="75.84"/></clipPath><g clip-path="url(#_clip27)"><path d="M1537.4,281.077L1451.35,281.077C1452.32,292.728 1455.64,301.204 1461.31,306.504C1466.97,311.803 1474.7,314.453 1484.49,314.453C1492.17,314.453 1498.4,313.016 1503.18,310.144C1507.95,307.272 1511.8,302.923 1514.71,297.097L1517.26,297.097L1539.59,311.417C1535.22,320.804 1528.62,328.409 1519.8,334.236C1510.99,340.061 1499.21,342.973 1484.49,342.973C1470.65,342.973 1458.7,340.344 1448.62,335.085C1438.55,329.825 1430.78,321.997 1425.32,311.6C1419.86,301.204 1417.13,288.52 1417.13,273.552C1417.13,258.34 1420,245.516 1425.75,235.079C1431.49,224.641 1439.26,216.852 1449.05,211.715C1458.84,206.577 1469.84,204.008 1482.06,204.008C1500.99,204.008 1515.5,209.025 1525.57,219.059C1535.64,229.091 1540.68,243.817 1540.68,263.236C1540.68,270.276 1540.44,275.736 1539.95,279.62L1537.4,281.077ZM1508.52,259.352C1508.19,249.157 1505.83,241.733 1501.42,237.081C1497.01,232.428 1490.56,230.103 1482.06,230.103C1465.07,230.103 1455.08,239.852 1452.08,259.352L1508.52,259.352ZM1569.93,340.425L1569.93,206.557L1602.58,206.557L1602.58,226.461L1605.12,226.947C1608.36,219.503 1612.61,214.041 1617.87,210.563C1623.13,207.083 1629.52,205.344 1637.05,205.344C1644.65,205.344 1650.44,206.637 1654.4,209.227L1648.7,238.235L1646.15,238.72C1643.96,237.829 1641.86,237.183 1639.84,236.777C1637.81,236.373 1635.35,236.171 1632.43,236.171C1623.05,236.171 1615.89,239.468 1610.95,246.063C1606.02,252.656 1603.55,263.236 1603.55,277.8L1603.55,340.425L1569.93,340.425Z" style="fill:none;fill-rule:nonzero;stroke:var(--ink);stroke-width:12.43px"/><g id="ab7"><path d="M0.645,0.332L0.184,0.332C0.189,0.269 0.207,0.224 0.237,0.195C0.271,0.166 0.315,0.151 0.36,0.153C0.4,0.153 0.435,0.16 0.46,0.176C0.487,0.192 0.507,0.216 0.523,0.247L0.536,0.247L0.656,0.169C0.633,0.119 0.596,0.077 0.549,0.047C0.493,0.013 0.427,-0.003 0.361,0C0.294,-0.002 0.228,0.013 0.168,0.043C0.115,0.071 0.071,0.115 0.044,0.168C0.013,0.231 -0.002,0.301 0,0.372C0,0.453 0.016,0.523 0.047,0.579C0.074,0.632 0.118,0.676 0.171,0.704C0.225,0.732 0.286,0.746 0.348,0.745C0.449,0.747 0.528,0.72 0.581,0.667C0.635,0.613 0.663,0.533 0.663,0.429C0.663,0.4 0.662,0.37 0.659,0.34L0.645,0.332M0.491,0.448C0.488,0.503 0.476,0.543 0.451,0.568C0.429,0.593 0.395,0.605 0.349,0.605C0.257,0.605 0.204,0.552 0.188,0.448L0.491,0.448Z" transform="matrix(186.42,0,0,-186.42,1417.13,342.973)" style="fill-opacity:0;fill-rule:nonzero"/></g><g id="ae5"><path d="M0,0L0,0.719L0.175,0.719L0.175,0.612L0.188,0.609C0.207,0.649 0.228,0.677 0.257,0.696C0.288,0.715 0.324,0.725 0.36,0.724C0.4,0.724 0.432,0.717 0.453,0.704L0.423,0.547L0.409,0.547C0.385,0.556 0.359,0.561 0.333,0.56C0.289,0.562 0.247,0.542 0.22,0.507C0.193,0.471 0.18,0.415 0.18,0.336L0.18,0L0,0Z" transform="matrix(186.42,0,0,-186.42,1569.82,340.425)" style="fill-opacity:0;fill-rule:nonzero"/></g><g id="ab8"><path d="M0.645,0.332L0.184,0.332C0.189,0.269 0.207,0.224 0.237,0.195C0.271,0.166 0.315,0.151 0.36,0.153C0.4,0.153 0.435,0.16 0.46,0.176C0.487,0.192 0.507,0.216 0.523,0.247L0.536,0.247L0.656,0.169C0.633,0.119 0.596,0.077 0.549,0.047C0.493,0.013 0.427,-0.003 0.361,0C0.294,-0.002 0.228,0.013 0.168,0.043C0.115,0.071 0.071,0.115 0.044,0.168C0.013,0.231 -0.002,0.301 0,0.372C0,0.453 0.016,0.523 0.047,0.579C0.074,0.632 0.118,0.676 0.171,0.704C0.225,0.732 0.286,0.746 0.348,0.745C0.449,0.747 0.528,0.72 0.581,0.667C0.635,0.613 0.663,0.533 0.663,0.429C0.663,0.4 0.662,0.37 0.659,0.34L0.645,0.332M0.491,0.448C0.488,0.503 0.476,0.543 0.451,0.568C0.429,0.593 0.395,0.605 0.349,0.605C0.257,0.605 0.204,0.552 0.188,0.448L0.491,0.448Z" transform="matrix(186.42,0,0,-186.42,1417.13,342.973)" style="fill:#00bf63;fill-rule:nonzero"/></g><g id="ae6"><path d="M0,0L0,0.719L0.175,0.719L0.175,0.612L0.188,0.609C0.207,0.649 0.228,0.677 0.257,0.696C0.288,0.715 0.324,0.725 0.36,0.724C0.4,0.724 0.432,0.717 0.453,0.704L0.423,0.547L0.409,0.547C0.385,0.556 0.359,0.561 0.333,0.56C0.289,0.562 0.247,0.542 0.22,0.507C0.193,0.471 0.18,0.415 0.18,0.336L0.18,0L0,0Z" transform="matrix(186.42,0,0,-186.42,1569.82,340.425)" style="fill:#00bf63;fill-rule:nonzero"/></g></g></g></g></g></svg>